<?xml version="1.0" encoding="utf-8" standalone="no"?>
<!DOCTYPE svg PUBLIC "-//W3C//DTD SVG 1.1//EN"
  "http://www.w3.org/Graphics/SVG/1.1/DTD/svg11.dtd">
<svg xmlns:xlink="http://www.w3.org/1999/xlink" width="460.8pt" height="345.6pt" viewBox="0 0 460.8 345.6" xmlns="http://www.w3.org/2000/svg" version="1.1">
 <metadata>
  <rdf:RDF xmlns:dc="http://purl.org/dc/elements/1.1/" xmlns:cc="http://creativecommons.org/ns#" xmlns:rdf="http://www.w3.org/1999/02/22-rdf-syntax-ns#">
   <cc:Work>
    <dc:type rdf:resource="http://purl.org/dc/dcmitype/StillImage"/>
    <dc:date>2025-03-28T10:19:26.518806</dc:date>
    <dc:format>image/svg+xml</dc:format>
    <dc:creator>
     <cc:Agent>
      <dc:title>Matplotlib v3.9.2, https://matplotlib.org/</dc:title>
     </cc:Agent>
    </dc:creator>
   </cc:Work>
  </rdf:RDF>
 </metadata>
 <defs>
  <style type="text/css">*{stroke-linejoin: round; stroke-linecap: butt}</style>
 </defs>
 <g id="figure_1">
  <g id="patch_1">
   <path d="M 0 345.6 
L 460.8 345.6 
L 460.8 0 
L 0 0 
z
" style="fill: #ffffff"/>
  </g>
  <g id="axes_1">
   <g id="patch_2">
    <path d="M 69.12 293.76 
L 414.72 293.76 
L 414.72 41.472 
L 69.12 41.472 
z
" style="fill: #ffffff"/>
   </g>
   <g id="line2d_1">
    <path d="M 84.829091 282.292364 
L 88.002645 280.033074 
L 91.176198 277.773785 
L 94.349752 275.514495 
L 97.523306 273.255205 
L 100.69686 270.995916 
L 103.870413 268.736626 
L 107.043967 266.477337 
L 110.217521 264.218047 
L 113.391074 261.958758 
L 116.564628 259.699468 
L 119.738182 257.440179 
L 122.911736 255.180889 
L 126.085289 252.9216 
L 129.258843 250.66231 
L 132.432397 248.403021 
L 135.60595 246.143731 
L 138.779504 243.884441 
L 141.953058 241.625152 
L 145.126612 239.365862 
L 148.300165 237.106573 
L 151.473719 234.847283 
L 154.647273 232.587994 
L 157.820826 230.328704 
L 160.99438 228.069415 
L 164.167934 225.810125 
L 167.341488 223.550836 
L 170.515041 221.291546 
L 173.688595 219.032257 
L 176.862149 216.772967 
L 180.035702 214.513677 
L 183.209256 212.254388 
L 186.38281 209.995098 
L 189.556364 207.735809 
L 192.729917 205.476519 
L 195.903471 203.21723 
L 199.077025 200.95794 
L 202.250579 198.698651 
L 205.424132 196.439361 
L 208.597686 194.180072 
L 211.77124 191.920782 
L 214.944793 189.661493 
L 218.118347 187.402203 
L 221.291901 185.142913 
L 224.465455 182.883624 
L 227.639008 180.624334 
L 230.812562 178.365045 
L 233.986116 176.105755 
L 237.159669 173.846466 
L 240.333223 171.587176 
L 243.506777 169.327887 
L 246.680331 167.068597 
L 249.853884 164.809308 
L 253.027438 162.550018 
L 256.200992 160.290729 
L 259.374545 158.031439 
L 262.548099 155.772149 
L 265.721653 153.51286 
L 268.895207 151.25357 
L 272.06876 148.994281 
L 275.242314 146.734991 
L 278.415868 144.475702 
L 281.589421 142.216412 
L 284.762975 139.957123 
L 287.936529 137.697833 
L 291.110083 135.438544 
L 294.283636 133.179254 
L 297.45719 130.919965 
L 300.630744 128.660675 
L 303.804298 126.401385 
L 306.977851 124.142096 
L 310.151405 121.882806 
L 313.324959 119.623517 
L 316.498512 117.364227 
L 319.672066 115.104938 
L 322.84562 112.845648 
L 326.019174 110.586359 
L 329.192727 108.327069 
L 332.366281 106.06778 
L 335.539835 103.80849 
L 338.713388 101.549201 
L 341.886942 99.289911 
L 345.060496 97.030621 
L 348.23405 94.771332 
L 351.407603 92.512042 
L 354.581157 90.252753 
L 357.754711 87.993463 
L 360.928264 85.734174 
L 364.101818 83.474884 
L 367.275372 81.215595 
L 370.448926 78.956305 
L 373.622479 76.697016 
L 376.796033 74.437726 
L 379.969587 72.178437 
L 383.14314 69.919147 
L 386.316694 67.659857 
L 389.490248 65.400568 
L 392.663802 63.141278 
L 395.837355 60.881989 
L 399.010909 58.622699 
" clip-path="url(#pe0b62a0211)" style="fill: none; stroke: #4c72b0; stroke-opacity: 0.7; stroke-width: 1.5; stroke-linecap: square"/>
   </g>
   <g id="line2d_2">
    <path d="M 84.829091 261.50061 
L 88.002645 261.008449 
L 91.176198 260.516288 
L 94.349752 260.024127 
L 97.523306 259.531966 
L 100.69686 259.039805 
L 103.870413 258.547645 
L 107.043967 258.055484 
L 110.217521 257.563323 
L 113.391074 257.071162 
L 116.564628 256.579001 
L 119.738182 256.08684 
L 122.911736 255.59468 
L 126.085289 255.102519 
L 129.258843 254.610358 
L 132.432397 254.118197 
L 135.60595 253.626036 
L 138.779504 253.133875 
L 141.953058 252.641715 
L 145.126612 252.149554 
L 148.300165 251.657393 
L 151.473719 251.165232 
L 154.647273 250.673071 
L 157.820826 250.18091 
L 160.99438 249.68875 
L 164.167934 249.196589 
L 167.341488 248.704428 
L 170.515041 248.212267 
L 173.688595 247.720106 
L 176.862149 247.227945 
L 180.035702 246.735785 
L 183.209256 246.243624 
L 186.38281 245.751463 
L 189.556364 245.259302 
L 192.729917 244.767141 
L 195.903471 244.27498 
L 199.077025 243.78282 
L 202.250579 243.290659 
L 205.424132 242.798498 
L 208.597686 242.306337 
L 211.77124 241.814176 
L 214.944793 241.322015 
L 218.118347 240.829855 
L 221.291901 240.337694 
L 224.465455 239.845533 
L 227.639008 239.353372 
L 230.812562 238.861211 
L 233.986116 238.36905 
L 237.159669 237.87689 
L 240.333223 237.384729 
L 243.506777 236.892568 
L 246.680331 236.400407 
L 249.853884 235.908246 
L 253.027438 235.416085 
L 256.200992 234.923925 
L 259.374545 234.431764 
L 262.548099 233.939603 
L 265.721653 233.447442 
L 268.895207 232.955281 
L 272.06876 232.46312 
L 275.242314 231.97096 
L 278.415868 231.478799 
L 281.589421 230.986638 
L 284.762975 230.494477 
L 287.936529 230.002316 
L 291.110083 229.510155 
L 294.283636 229.017995 
L 297.45719 228.525834 
L 300.630744 228.033673 
L 303.804298 227.541512 
L 306.977851 227.049351 
L 310.151405 226.55719 
L 313.324959 226.06503 
L 316.498512 225.572869 
L 319.672066 225.080708 
L 322.84562 224.588547 
L 326.019174 224.096386 
L 329.192727 223.604225 
L 332.366281 223.112065 
L 335.539835 222.619904 
L 338.713388 222.127743 
L 341.886942 221.635582 
L 345.060496 221.143421 
L 348.23405 220.65126 
L 351.407603 220.159099 
L 354.581157 219.666939 
L 357.754711 219.174778 
L 360.928264 218.682617 
L 364.101818 218.190456 
L 367.275372 217.698295 
L 370.448926 217.206134 
L 373.622479 216.713974 
L 376.796033 216.221813 
L 379.969587 215.729652 
L 383.14314 215.237491 
L 386.316694 214.74533 
L 389.490248 214.253169 
L 392.663802 213.761009 
L 395.837355 213.268848 
L 399.010909 212.776687 
" clip-path="url(#pe0b62a0211)" style="fill: none; stroke: #dd8452; stroke-opacity: 0.7; stroke-width: 1.5; stroke-linecap: square"/>
   </g>
   <g id="matplotlib.axis_1">
    <g id="xtick_1">
     <g id="line2d_3">
      <defs>
       <path id="m6fc9a5990f" d="M 0 0 
L 0 3.5 
" style="stroke: #000000; stroke-width: 0.8"/>
      </defs>
      <g>
       <use xlink:href="#m6fc9a5990f" x="197.113085" y="293.76" style="stroke: #000000; stroke-width: 0.8"/>
      </g>
     </g>
     <g id="text_1">
      <!-- 500 -->
      <g transform="translate(180.316085 314.13325) scale(0.176 -0.176)">
       <defs>
        <path id="DejaVuSans-35" d="M 691 4666 
L 3169 4666 
L 3169 4134 
L 1269 4134 
L 1269 2991 
Q 1406 3038 1543 3061 
Q 1681 3084 1819 3084 
Q 2600 3084 3056 2656 
Q 3513 2228 3513 1497 
Q 3513 744 3044 326 
Q 2575 -91 1722 -91 
Q 1428 -91 1123 -41 
Q 819 9 494 109 
L 494 744 
Q 775 591 1075 516 
Q 1375 441 1709 441 
Q 2250 441 2565 725 
Q 2881 1009 2881 1497 
Q 2881 1984 2565 2268 
Q 2250 2553 1709 2553 
Q 1456 2553 1204 2497 
Q 953 2441 691 2322 
L 691 4666 
z
" transform="scale(0.015625)"/>
        <path id="DejaVuSans-30" d="M 2034 4250 
Q 1547 4250 1301 3770 
Q 1056 3291 1056 2328 
Q 1056 1369 1301 889 
Q 1547 409 2034 409 
Q 2525 409 2770 889 
Q 3016 1369 3016 2328 
Q 3016 3291 2770 3770 
Q 2525 4250 2034 4250 
z
M 2034 4750 
Q 2819 4750 3233 4129 
Q 3647 3509 3647 2328 
Q 3647 1150 3233 529 
Q 2819 -91 2034 -91 
Q 1250 -91 836 529 
Q 422 1150 422 2328 
Q 422 3509 836 4129 
Q 1250 4750 2034 4750 
z
" transform="scale(0.015625)"/>
       </defs>
       <use xlink:href="#DejaVuSans-35"/>
       <use xlink:href="#DejaVuSans-30" x="63.623047"/>
       <use xlink:href="#DejaVuSans-30" x="127.246094"/>
      </g>
     </g>
    </g>
    <g id="xtick_2">
     <g id="line2d_4">
      <g>
       <use xlink:href="#m6fc9a5990f" x="330.466998" y="293.76" style="stroke: #000000; stroke-width: 0.8"/>
      </g>
     </g>
     <g id="text_2">
      <!-- 1000 -->
      <g transform="translate(308.070998 314.13325) scale(0.176 -0.176)">
       <defs>
        <path id="DejaVuSans-31" d="M 794 531 
L 1825 531 
L 1825 4091 
L 703 3866 
L 703 4441 
L 1819 4666 
L 2450 4666 
L 2450 531 
L 3481 531 
L 3481 0 
L 794 0 
L 794 531 
z
" transform="scale(0.015625)"/>
       </defs>
       <use xlink:href="#DejaVuSans-31"/>
       <use xlink:href="#DejaVuSans-30" x="63.623047"/>
       <use xlink:href="#DejaVuSans-30" x="127.246094"/>
       <use xlink:href="#DejaVuSans-30" x="190.869141"/>
      </g>
     </g>
    </g>
    <g id="text_3">
     <!-- excitatory pool size       -->
     <g transform="translate(113.996875 338.510062) scale(0.22 -0.22)">
      <defs>
       <path id="DejaVuSans-65" d="M 3597 1894 
L 3597 1613 
L 953 1613 
Q 991 1019 1311 708 
Q 1631 397 2203 397 
Q 2534 397 2845 478 
Q 3156 559 3463 722 
L 3463 178 
Q 3153 47 2828 -22 
Q 2503 -91 2169 -91 
Q 1331 -91 842 396 
Q 353 884 353 1716 
Q 353 2575 817 3079 
Q 1281 3584 2069 3584 
Q 2775 3584 3186 3129 
Q 3597 2675 3597 1894 
z
M 3022 2063 
Q 3016 2534 2758 2815 
Q 2500 3097 2075 3097 
Q 1594 3097 1305 2825 
Q 1016 2553 972 2059 
L 3022 2063 
z
" transform="scale(0.015625)"/>
       <path id="DejaVuSans-78" d="M 3513 3500 
L 2247 1797 
L 3578 0 
L 2900 0 
L 1881 1375 
L 863 0 
L 184 0 
L 1544 1831 
L 300 3500 
L 978 3500 
L 1906 2253 
L 2834 3500 
L 3513 3500 
z
" transform="scale(0.015625)"/>
       <path id="DejaVuSans-63" d="M 3122 3366 
L 3122 2828 
Q 2878 2963 2633 3030 
Q 2388 3097 2138 3097 
Q 1578 3097 1268 2742 
Q 959 2388 959 1747 
Q 959 1106 1268 751 
Q 1578 397 2138 397 
Q 2388 397 2633 464 
Q 2878 531 3122 666 
L 3122 134 
Q 2881 22 2623 -34 
Q 2366 -91 2075 -91 
Q 1284 -91 818 406 
Q 353 903 353 1747 
Q 353 2603 823 3093 
Q 1294 3584 2113 3584 
Q 2378 3584 2631 3529 
Q 2884 3475 3122 3366 
z
" transform="scale(0.015625)"/>
       <path id="DejaVuSans-69" d="M 603 3500 
L 1178 3500 
L 1178 0 
L 603 0 
L 603 3500 
z
M 603 4863 
L 1178 4863 
L 1178 4134 
L 603 4134 
L 603 4863 
z
" transform="scale(0.015625)"/>
       <path id="DejaVuSans-74" d="M 1172 4494 
L 1172 3500 
L 2356 3500 
L 2356 3053 
L 1172 3053 
L 1172 1153 
Q 1172 725 1289 603 
Q 1406 481 1766 481 
L 2356 481 
L 2356 0 
L 1766 0 
Q 1100 0 847 248 
Q 594 497 594 1153 
L 594 3053 
L 172 3053 
L 172 3500 
L 594 3500 
L 594 4494 
L 1172 4494 
z
" transform="scale(0.015625)"/>
       <path id="DejaVuSans-61" d="M 2194 1759 
Q 1497 1759 1228 1600 
Q 959 1441 959 1056 
Q 959 750 1161 570 
Q 1363 391 1709 391 
Q 2188 391 2477 730 
Q 2766 1069 2766 1631 
L 2766 1759 
L 2194 1759 
z
M 3341 1997 
L 3341 0 
L 2766 0 
L 2766 531 
Q 2569 213 2275 61 
Q 1981 -91 1556 -91 
Q 1019 -91 701 211 
Q 384 513 384 1019 
Q 384 1609 779 1909 
Q 1175 2209 1959 2209 
L 2766 2209 
L 2766 2266 
Q 2766 2663 2505 2880 
Q 2244 3097 1772 3097 
Q 1472 3097 1187 3025 
Q 903 2953 641 2809 
L 641 3341 
Q 956 3463 1253 3523 
Q 1550 3584 1831 3584 
Q 2591 3584 2966 3190 
Q 3341 2797 3341 1997 
z
" transform="scale(0.015625)"/>
       <path id="DejaVuSans-6f" d="M 1959 3097 
Q 1497 3097 1228 2736 
Q 959 2375 959 1747 
Q 959 1119 1226 758 
Q 1494 397 1959 397 
Q 2419 397 2687 759 
Q 2956 1122 2956 1747 
Q 2956 2369 2687 2733 
Q 2419 3097 1959 3097 
z
M 1959 3584 
Q 2709 3584 3137 3096 
Q 3566 2609 3566 1747 
Q 3566 888 3137 398 
Q 2709 -91 1959 -91 
Q 1206 -91 779 398 
Q 353 888 353 1747 
Q 353 2609 779 3096 
Q 1206 3584 1959 3584 
z
" transform="scale(0.015625)"/>
       <path id="DejaVuSans-72" d="M 2631 2963 
Q 2534 3019 2420 3045 
Q 2306 3072 2169 3072 
Q 1681 3072 1420 2755 
Q 1159 2438 1159 1844 
L 1159 0 
L 581 0 
L 581 3500 
L 1159 3500 
L 1159 2956 
Q 1341 3275 1631 3429 
Q 1922 3584 2338 3584 
Q 2397 3584 2469 3576 
Q 2541 3569 2628 3553 
L 2631 2963 
z
" transform="scale(0.015625)"/>
       <path id="DejaVuSans-79" d="M 2059 -325 
Q 1816 -950 1584 -1140 
Q 1353 -1331 966 -1331 
L 506 -1331 
L 506 -850 
L 844 -850 
Q 1081 -850 1212 -737 
Q 1344 -625 1503 -206 
L 1606 56 
L 191 3500 
L 800 3500 
L 1894 763 
L 2988 3500 
L 3597 3500 
L 2059 -325 
z
" transform="scale(0.015625)"/>
       <path id="DejaVuSans-20" transform="scale(0.015625)"/>
       <path id="DejaVuSans-70" d="M 1159 525 
L 1159 -1331 
L 581 -1331 
L 581 3500 
L 1159 3500 
L 1159 2969 
Q 1341 3281 1617 3432 
Q 1894 3584 2278 3584 
Q 2916 3584 3314 3078 
Q 3713 2572 3713 1747 
Q 3713 922 3314 415 
Q 2916 -91 2278 -91 
Q 1894 -91 1617 61 
Q 1341 213 1159 525 
z
M 3116 1747 
Q 3116 2381 2855 2742 
Q 2594 3103 2138 3103 
Q 1681 3103 1420 2742 
Q 1159 2381 1159 1747 
Q 1159 1113 1420 752 
Q 1681 391 2138 391 
Q 2594 391 2855 752 
Q 3116 1113 3116 1747 
z
" transform="scale(0.015625)"/>
       <path id="DejaVuSans-6c" d="M 603 4863 
L 1178 4863 
L 1178 0 
L 603 0 
L 603 4863 
z
" transform="scale(0.015625)"/>
       <path id="DejaVuSans-73" d="M 2834 3397 
L 2834 2853 
Q 2591 2978 2328 3040 
Q 2066 3103 1784 3103 
Q 1356 3103 1142 2972 
Q 928 2841 928 2578 
Q 928 2378 1081 2264 
Q 1234 2150 1697 2047 
L 1894 2003 
Q 2506 1872 2764 1633 
Q 3022 1394 3022 966 
Q 3022 478 2636 193 
Q 2250 -91 1575 -91 
Q 1294 -91 989 -36 
Q 684 19 347 128 
L 347 722 
Q 666 556 975 473 
Q 1284 391 1588 391 
Q 1994 391 2212 530 
Q 2431 669 2431 922 
Q 2431 1156 2273 1281 
Q 2116 1406 1581 1522 
L 1381 1569 
Q 847 1681 609 1914 
Q 372 2147 372 2553 
Q 372 3047 722 3315 
Q 1072 3584 1716 3584 
Q 2034 3584 2315 3537 
Q 2597 3491 2834 3397 
z
" transform="scale(0.015625)"/>
       <path id="DejaVuSans-7a" d="M 353 3500 
L 3084 3500 
L 3084 2975 
L 922 459 
L 3084 459 
L 3084 0 
L 275 0 
L 275 525 
L 2438 3041 
L 353 3041 
L 353 3500 
z
" transform="scale(0.015625)"/>
      </defs>
      <use xlink:href="#DejaVuSans-65"/>
      <use xlink:href="#DejaVuSans-78" x="59.773438"/>
      <use xlink:href="#DejaVuSans-63" x="117.203125"/>
      <use xlink:href="#DejaVuSans-69" x="172.183594"/>
      <use xlink:href="#DejaVuSans-74" x="199.966797"/>
      <use xlink:href="#DejaVuSans-61" x="239.175781"/>
      <use xlink:href="#DejaVuSans-74" x="300.455078"/>
      <use xlink:href="#DejaVuSans-6f" x="339.664062"/>
      <use xlink:href="#DejaVuSans-72" x="400.845703"/>
      <use xlink:href="#DejaVuSans-79" x="441.958984"/>
      <use xlink:href="#DejaVuSans-20" x="501.138672"/>
      <use xlink:href="#DejaVuSans-70" x="532.925781"/>
      <use xlink:href="#DejaVuSans-6f" x="596.402344"/>
      <use xlink:href="#DejaVuSans-6f" x="657.583984"/>
      <use xlink:href="#DejaVuSans-6c" x="718.765625"/>
      <use xlink:href="#DejaVuSans-20" x="746.548828"/>
      <use xlink:href="#DejaVuSans-73" x="778.335938"/>
      <use xlink:href="#DejaVuSans-69" x="830.435547"/>
      <use xlink:href="#DejaVuSans-7a" x="858.21875"/>
      <use xlink:href="#DejaVuSans-65" x="910.708984"/>
      <use xlink:href="#DejaVuSans-20" x="972.232422"/>
      <use xlink:href="#DejaVuSans-20" x="1004.019531"/>
      <use xlink:href="#DejaVuSans-20" x="1035.806641"/>
      <use xlink:href="#DejaVuSans-20" x="1067.59375"/>
      <use xlink:href="#DejaVuSans-20" x="1099.380859"/>
      <use xlink:href="#DejaVuSans-20" x="1131.167969"/>
     </g>
    </g>
   </g>
   <g id="matplotlib.axis_2">
    <g id="ytick_1">
     <g id="line2d_5">
      <defs>
       <path id="m7a4542c192" d="M 0 0 
L -3.5 0 
" style="stroke: #000000; stroke-width: 0.8"/>
      </defs>
      <g>
       <use xlink:href="#m7a4542c192" x="69.12" y="290.516101" style="stroke: #000000; stroke-width: 0.8"/>
      </g>
     </g>
     <g id="text_4">
      <!-- 0 -->
      <g transform="translate(50.922 297.202726) scale(0.176 -0.176)">
       <use xlink:href="#DejaVuSans-30"/>
      </g>
     </g>
    </g>
    <g id="ytick_2">
     <g id="line2d_6">
      <g>
       <use xlink:href="#m7a4542c192" x="69.12" y="199.754586" style="stroke: #000000; stroke-width: 0.8"/>
      </g>
     </g>
     <g id="text_5">
      <!-- 5 -->
      <g transform="translate(50.922 206.441211) scale(0.176 -0.176)">
       <use xlink:href="#DejaVuSans-35"/>
      </g>
     </g>
    </g>
    <g id="ytick_3">
     <g id="line2d_7">
      <g>
       <use xlink:href="#m7a4542c192" x="69.12" y="108.993071" style="stroke: #000000; stroke-width: 0.8"/>
      </g>
     </g>
     <g id="text_6">
      <!-- 10 -->
      <g transform="translate(39.724 115.679696) scale(0.176 -0.176)">
       <use xlink:href="#DejaVuSans-31"/>
       <use xlink:href="#DejaVuSans-30" x="63.623047"/>
      </g>
     </g>
    </g>
    <g id="text_7">
     <!-- sparsity robustness     -->
     <g transform="translate(31.148687 288.884125) rotate(-90) scale(0.22 -0.22)">
      <defs>
       <path id="DejaVuSans-62" d="M 3116 1747 
Q 3116 2381 2855 2742 
Q 2594 3103 2138 3103 
Q 1681 3103 1420 2742 
Q 1159 2381 1159 1747 
Q 1159 1113 1420 752 
Q 1681 391 2138 391 
Q 2594 391 2855 752 
Q 3116 1113 3116 1747 
z
M 1159 2969 
Q 1341 3281 1617 3432 
Q 1894 3584 2278 3584 
Q 2916 3584 3314 3078 
Q 3713 2572 3713 1747 
Q 3713 922 3314 415 
Q 2916 -91 2278 -91 
Q 1894 -91 1617 61 
Q 1341 213 1159 525 
L 1159 0 
L 581 0 
L 581 4863 
L 1159 4863 
L 1159 2969 
z
" transform="scale(0.015625)"/>
       <path id="DejaVuSans-75" d="M 544 1381 
L 544 3500 
L 1119 3500 
L 1119 1403 
Q 1119 906 1312 657 
Q 1506 409 1894 409 
Q 2359 409 2629 706 
Q 2900 1003 2900 1516 
L 2900 3500 
L 3475 3500 
L 3475 0 
L 2900 0 
L 2900 538 
Q 2691 219 2414 64 
Q 2138 -91 1772 -91 
Q 1169 -91 856 284 
Q 544 659 544 1381 
z
M 1991 3584 
L 1991 3584 
z
" transform="scale(0.015625)"/>
       <path id="DejaVuSans-6e" d="M 3513 2113 
L 3513 0 
L 2938 0 
L 2938 2094 
Q 2938 2591 2744 2837 
Q 2550 3084 2163 3084 
Q 1697 3084 1428 2787 
Q 1159 2491 1159 1978 
L 1159 0 
L 581 0 
L 581 3500 
L 1159 3500 
L 1159 2956 
Q 1366 3272 1645 3428 
Q 1925 3584 2291 3584 
Q 2894 3584 3203 3211 
Q 3513 2838 3513 2113 
z
" transform="scale(0.015625)"/>
      </defs>
      <use xlink:href="#DejaVuSans-73"/>
      <use xlink:href="#DejaVuSans-70" x="52.099609"/>
      <use xlink:href="#DejaVuSans-61" x="115.576172"/>
      <use xlink:href="#DejaVuSans-72" x="176.855469"/>
      <use xlink:href="#DejaVuSans-73" x="217.96875"/>
      <use xlink:href="#DejaVuSans-69" x="270.068359"/>
      <use xlink:href="#DejaVuSans-74" x="297.851562"/>
      <use xlink:href="#DejaVuSans-79" x="337.060547"/>
      <use xlink:href="#DejaVuSans-20" x="396.240234"/>
      <use xlink:href="#DejaVuSans-72" x="428.027344"/>
      <use xlink:href="#DejaVuSans-6f" x="466.890625"/>
      <use xlink:href="#DejaVuSans-62" x="528.072266"/>
      <use xlink:href="#DejaVuSans-75" x="591.548828"/>
      <use xlink:href="#DejaVuSans-73" x="654.927734"/>
      <use xlink:href="#DejaVuSans-74" x="707.027344"/>
      <use xlink:href="#DejaVuSans-6e" x="746.236328"/>
      <use xlink:href="#DejaVuSans-65" x="809.615234"/>
      <use xlink:href="#DejaVuSans-73" x="871.138672"/>
      <use xlink:href="#DejaVuSans-73" x="923.238281"/>
      <use xlink:href="#DejaVuSans-20" x="975.337891"/>
      <use xlink:href="#DejaVuSans-20" x="1007.125"/>
      <use xlink:href="#DejaVuSans-20" x="1038.912109"/>
      <use xlink:href="#DejaVuSans-20" x="1070.699219"/>
     </g>
    </g>
   </g>
   <g id="patch_3">
    <path d="M 69.12 293.76 
L 69.12 41.472 
" style="fill: none; stroke: #000000; stroke-width: 0.8; stroke-linejoin: miter; stroke-linecap: square"/>
   </g>
   <g id="patch_4">
    <path d="M 69.12 293.76 
L 414.72 293.76 
" style="fill: none; stroke: #000000; stroke-width: 0.8; stroke-linejoin: miter; stroke-linecap: square"/>
   </g>
   <g id="PathCollection_1">
    <defs>
     <path id="m5534c048b0" d="M 0 6.123724 
C 1.624031 6.123724 3.181764 5.47849 4.330127 4.330127 
C 5.47849 3.181764 6.123724 1.624031 6.123724 0 
C 6.123724 -1.624031 5.47849 -3.181764 4.330127 -4.330127 
C 3.181764 -5.47849 1.624031 -6.123724 0 -6.123724 
C -1.624031 -6.123724 -3.181764 -5.47849 -4.330127 -4.330127 
C -5.47849 -3.181764 -6.123724 -1.624031 -6.123724 0 
C -6.123724 1.624031 -5.47849 3.181764 -4.330127 4.330127 
C -3.181764 5.47849 -1.624031 6.123724 0 6.123724 
z
" style="stroke: #4c72b0; stroke-width: 2.5"/>
    </defs>
    <g clip-path="url(#pe0b62a0211)">
     <use xlink:href="#m5534c048b0" x="84.829091" y="265.911115" style="fill: #4c72b0; stroke: #4c72b0; stroke-width: 2.5"/>
     <use xlink:href="#m5534c048b0" x="119.501108" y="255.823702" style="fill: #4c72b0; stroke: #4c72b0; stroke-width: 2.5"/>
     <use xlink:href="#m5534c048b0" x="154.439833" y="244.129773" style="fill: #4c72b0; stroke: #4c72b0; stroke-width: 2.5"/>
     <use xlink:href="#m5534c048b0" x="189.378558" y="218.466691" style="fill: #4c72b0; stroke: #4c72b0; stroke-width: 2.5"/>
     <use xlink:href="#m5534c048b0" x="224.317284" y="189.213986" style="fill: #4c72b0; stroke: #4c72b0; stroke-width: 2.5"/>
     <use xlink:href="#m5534c048b0" x="259.256009" y="155.958737" style="fill: #4c72b0; stroke: #4c72b0; stroke-width: 2.5"/>
     <use xlink:href="#m5534c048b0" x="294.194734" y="136.628204" style="fill: #4c72b0; stroke: #4c72b0; stroke-width: 2.5"/>
     <use xlink:href="#m5534c048b0" x="329.133459" y="99.522237" style="fill: #4c72b0; stroke: #4c72b0; stroke-width: 2.5"/>
     <use xlink:href="#m5534c048b0" x="364.072184" y="86.740722" style="fill: #4c72b0; stroke: #4c72b0; stroke-width: 2.5"/>
     <use xlink:href="#m5534c048b0" x="399.010909" y="52.939636" style="fill: #4c72b0; stroke: #4c72b0; stroke-width: 2.5"/>
    </g>
   </g>
   <g id="PathCollection_2">
    <defs>
     <path id="mb779aa7d0a" d="M -6.123724 6.123724 
L 6.123724 6.123724 
L 6.123724 -6.123724 
L -6.123724 -6.123724 
z
" style="stroke: #dd8452; stroke-width: 2.5"/>
    </defs>
    <g clip-path="url(#pe0b62a0211)">
     <use xlink:href="#mb779aa7d0a" x="84.829091" y="260.396948" style="fill: #dd8452; stroke: #dd8452; stroke-width: 2.5"/>
     <use xlink:href="#mb779aa7d0a" x="119.501108" y="251.072949" style="fill: #dd8452; stroke: #dd8452; stroke-width: 2.5"/>
     <use xlink:href="#mb779aa7d0a" x="154.439833" y="247.426142" style="fill: #dd8452; stroke: #dd8452; stroke-width: 2.5"/>
     <use xlink:href="#mb779aa7d0a" x="189.378558" y="244.522979" style="fill: #dd8452; stroke: #dd8452; stroke-width: 2.5"/>
     <use xlink:href="#mb779aa7d0a" x="224.317284" y="243.196321" style="fill: #dd8452; stroke: #dd8452; stroke-width: 2.5"/>
     <use xlink:href="#mb779aa7d0a" x="259.256009" y="238.719869" style="fill: #dd8452; stroke: #dd8452; stroke-width: 2.5"/>
     <use xlink:href="#mb779aa7d0a" x="294.194734" y="237.261329" style="fill: #dd8452; stroke: #dd8452; stroke-width: 2.5"/>
     <use xlink:href="#mb779aa7d0a" x="329.133459" y="240.961495" style="fill: #dd8452; stroke: #dd8452; stroke-width: 2.5"/>
     <use xlink:href="#mb779aa7d0a" x="364.072184" y="202.959183" style="fill: #dd8452; stroke: #dd8452; stroke-width: 2.5"/>
     <use xlink:href="#mb779aa7d0a" x="399.010909" y="205.034714" style="fill: #dd8452; stroke: #dd8452; stroke-width: 2.5"/>
    </g>
   </g>
   <g id="legend_1">
    <g id="PathCollection_3">
     <g>
      <use xlink:href="#m5534c048b0" x="103.32" y="66.624187" style="fill: #4c72b0; stroke: #4c72b0; stroke-width: 2.5"/>
     </g>
    </g>
    <g id="text_8">
     <!-- topological -->
     <g transform="translate(135.72 71.349187) scale(0.18 -0.18)">
      <defs>
       <path id="DejaVuSans-67" d="M 2906 1791 
Q 2906 2416 2648 2759 
Q 2391 3103 1925 3103 
Q 1463 3103 1205 2759 
Q 947 2416 947 1791 
Q 947 1169 1205 825 
Q 1463 481 1925 481 
Q 2391 481 2648 825 
Q 2906 1169 2906 1791 
z
M 3481 434 
Q 3481 -459 3084 -895 
Q 2688 -1331 1869 -1331 
Q 1566 -1331 1297 -1286 
Q 1028 -1241 775 -1147 
L 775 -588 
Q 1028 -725 1275 -790 
Q 1522 -856 1778 -856 
Q 2344 -856 2625 -561 
Q 2906 -266 2906 331 
L 2906 616 
Q 2728 306 2450 153 
Q 2172 0 1784 0 
Q 1141 0 747 490 
Q 353 981 353 1791 
Q 353 2603 747 3093 
Q 1141 3584 1784 3584 
Q 2172 3584 2450 3431 
Q 2728 3278 2906 2969 
L 2906 3500 
L 3481 3500 
L 3481 434 
z
" transform="scale(0.015625)"/>
      </defs>
      <use xlink:href="#DejaVuSans-74"/>
      <use xlink:href="#DejaVuSans-6f" x="39.208984"/>
      <use xlink:href="#DejaVuSans-70" x="100.390625"/>
      <use xlink:href="#DejaVuSans-6f" x="163.867188"/>
      <use xlink:href="#DejaVuSans-6c" x="225.048828"/>
      <use xlink:href="#DejaVuSans-6f" x="252.832031"/>
      <use xlink:href="#DejaVuSans-67" x="314.013672"/>
      <use xlink:href="#DejaVuSans-69" x="377.490234"/>
      <use xlink:href="#DejaVuSans-63" x="405.273438"/>
      <use xlink:href="#DejaVuSans-61" x="460.253906"/>
      <use xlink:href="#DejaVuSans-6c" x="521.533203"/>
     </g>
    </g>
    <g id="PathCollection_4">
     <g>
      <use xlink:href="#mb779aa7d0a" x="103.32" y="93.044812" style="fill: #dd8452; stroke: #dd8452; stroke-width: 2.5"/>
     </g>
    </g>
    <g id="text_9">
     <!-- salt and pepper -->
     <g transform="translate(135.72 97.769812) scale(0.18 -0.18)">
      <defs>
       <path id="DejaVuSans-64" d="M 2906 2969 
L 2906 4863 
L 3481 4863 
L 3481 0 
L 2906 0 
L 2906 525 
Q 2725 213 2448 61 
Q 2172 -91 1784 -91 
Q 1150 -91 751 415 
Q 353 922 353 1747 
Q 353 2572 751 3078 
Q 1150 3584 1784 3584 
Q 2172 3584 2448 3432 
Q 2725 3281 2906 2969 
z
M 947 1747 
Q 947 1113 1208 752 
Q 1469 391 1925 391 
Q 2381 391 2643 752 
Q 2906 1113 2906 1747 
Q 2906 2381 2643 2742 
Q 2381 3103 1925 3103 
Q 1469 3103 1208 2742 
Q 947 2381 947 1747 
z
" transform="scale(0.015625)"/>
      </defs>
      <use xlink:href="#DejaVuSans-73"/>
      <use xlink:href="#DejaVuSans-61" x="52.099609"/>
      <use xlink:href="#DejaVuSans-6c" x="113.378906"/>
      <use xlink:href="#DejaVuSans-74" x="141.162109"/>
      <use xlink:href="#DejaVuSans-20" x="180.371094"/>
      <use xlink:href="#DejaVuSans-61" x="212.158203"/>
      <use xlink:href="#DejaVuSans-6e" x="273.4375"/>
      <use xlink:href="#DejaVuSans-64" x="336.816406"/>
      <use xlink:href="#DejaVuSans-20" x="400.292969"/>
      <use xlink:href="#DejaVuSans-70" x="432.080078"/>
      <use xlink:href="#DejaVuSans-65" x="495.556641"/>
      <use xlink:href="#DejaVuSans-70" x="557.080078"/>
      <use xlink:href="#DejaVuSans-70" x="620.556641"/>
      <use xlink:href="#DejaVuSans-65" x="684.033203"/>
      <use xlink:href="#DejaVuSans-72" x="745.556641"/>
     </g>
    </g>
   </g>
  </g>
 </g>
 <defs>
  <clipPath id="pe0b62a0211">
   <rect x="69.12" y="41.472" width="345.6" height="252.288"/>
  </clipPath>
 </defs>
</svg>
