<?xml version="1.0" encoding="utf-8" standalone="no"?>
<!DOCTYPE svg PUBLIC "-//W3C//DTD SVG 1.1//EN"
  "http://www.w3.org/Graphics/SVG/1.1/DTD/svg11.dtd">
<svg xmlns:xlink="http://www.w3.org/1999/xlink" width="432pt" height="396pt" viewBox="0 0 432 396" xmlns="http://www.w3.org/2000/svg" version="1.1">
 <metadata>
  <rdf:RDF xmlns:dc="http://purl.org/dc/elements/1.1/" xmlns:cc="http://creativecommons.org/ns#" xmlns:rdf="http://www.w3.org/1999/02/22-rdf-syntax-ns#">
   <cc:Work>
    <dc:type rdf:resource="http://purl.org/dc/dcmitype/StillImage"/>
    <dc:date>2025-03-19T17:45:25.495689</dc:date>
    <dc:format>image/svg+xml</dc:format>
    <dc:creator>
     <cc:Agent>
      <dc:title>Matplotlib v3.9.2, https://matplotlib.org/</dc:title>
     </cc:Agent>
    </dc:creator>
   </cc:Work>
  </rdf:RDF>
 </metadata>
 <defs>
  <style type="text/css">*{stroke-linejoin: round; stroke-linecap: butt}</style>
 </defs>
 <g id="figure_1">
  <g id="patch_1">
   <path d="M 0 396 
L 432 396 
L 432 0 
L 0 0 
z
" style="fill: #ffffff"/>
  </g>
  <g id="axes_1">
   <g id="patch_2">
    <path d="M 86.4 332.64 
L 388.8 332.64 
L 388.8 47.52 
L 86.4 47.52 
z
" style="fill: #ffffff"/>
   </g>
   <g id="line2d_1">
    <path d="M -1 190.08 
L 433 190.08 
" clip-path="url(#p7e8d23a960)" style="fill: none; stroke-dasharray: 5.55,2.4; stroke-dashoffset: 0; stroke: #000000; stroke-width: 1.5"/>
   </g>
   <g id="PathCollection_1">
    <defs>
     <path id="mc7c6cde3d8" d="M -3.872983 3.872983 
L 3.872983 3.872983 
L 3.872983 -3.872983 
L -3.872983 -3.872983 
z
" style="stroke: #51127c; stroke-opacity: 0.7; stroke-width: 1.5"/>
    </defs>
    <g clip-path="url(#p7e8d23a960)">
     <use xlink:href="#mc7c6cde3d8" x="311.476451" y="152.35161" style="fill: #51127c; fill-opacity: 0.7; stroke: #51127c; stroke-opacity: 0.7; stroke-width: 1.5"/>
     <use xlink:href="#mc7c6cde3d8" x="291.292034" y="163.880595" style="fill: #51127c; fill-opacity: 0.7; stroke: #51127c; stroke-opacity: 0.7; stroke-width: 1.5"/>
     <use xlink:href="#mc7c6cde3d8" x="266.667939" y="177.155361" style="fill: #51127c; fill-opacity: 0.7; stroke: #51127c; stroke-opacity: 0.7; stroke-width: 1.5"/>
     <use xlink:href="#mc7c6cde3d8" x="225.618168" y="204.311481" style="fill: #51127c; fill-opacity: 0.7; stroke: #51127c; stroke-opacity: 0.7; stroke-width: 1.5"/>
     <use xlink:href="#mc7c6cde3d8" x="211.125613" y="212.479512" style="fill: #51127c; fill-opacity: 0.7; stroke: #51127c; stroke-opacity: 0.7; stroke-width: 1.5"/>
     <use xlink:href="#mc7c6cde3d8" x="202.975861" y="217.435201" style="fill: #51127c; fill-opacity: 0.7; stroke: #51127c; stroke-opacity: 0.7; stroke-width: 1.5"/>
     <use xlink:href="#mc7c6cde3d8" x="198.245474" y="221.891299" style="fill: #51127c; fill-opacity: 0.7; stroke: #51127c; stroke-opacity: 0.7; stroke-width: 1.5"/>
     <use xlink:href="#mc7c6cde3d8" x="193.231074" y="226.693165" style="fill: #51127c; fill-opacity: 0.7; stroke: #51127c; stroke-opacity: 0.7; stroke-width: 1.5"/>
     <use xlink:href="#mc7c6cde3d8" x="185.544807" y="229.763857" style="fill: #51127c; fill-opacity: 0.7; stroke: #51127c; stroke-opacity: 0.7; stroke-width: 1.5"/>
     <use xlink:href="#mc7c6cde3d8" x="175.494634" y="232.994836" style="fill: #51127c; fill-opacity: 0.7; stroke: #51127c; stroke-opacity: 0.7; stroke-width: 1.5"/>
     <use xlink:href="#mc7c6cde3d8" x="174.27013" y="235.246466" style="fill: #51127c; fill-opacity: 0.7; stroke: #51127c; stroke-opacity: 0.7; stroke-width: 1.5"/>
     <use xlink:href="#mc7c6cde3d8" x="166.232516" y="238.785318" style="fill: #51127c; fill-opacity: 0.7; stroke: #51127c; stroke-opacity: 0.7; stroke-width: 1.5"/>
     <use xlink:href="#mc7c6cde3d8" x="172.804743" y="238.785318" style="fill: #51127c; fill-opacity: 0.7; stroke: #51127c; stroke-opacity: 0.7; stroke-width: 1.5"/>
     <use xlink:href="#mc7c6cde3d8" x="159.273921" y="243.842249" style="fill: #51127c; fill-opacity: 0.7; stroke: #51127c; stroke-opacity: 0.7; stroke-width: 1.5"/>
     <use xlink:href="#mc7c6cde3d8" x="155.63543" y="245.173763" style="fill: #51127c; fill-opacity: 0.7; stroke: #51127c; stroke-opacity: 0.7; stroke-width: 1.5"/>
    </g>
   </g>
   <g id="PathCollection_2">
    <defs>
     <path id="me4c172adaf" d="M 0 3.872983 
C 1.027127 3.872983 2.012324 3.464901 2.738613 2.738613 
C 3.464901 2.012324 3.872983 1.027127 3.872983 0 
C 3.872983 -1.027127 3.464901 -2.012324 2.738613 -2.738613 
C 2.012324 -3.464901 1.027127 -3.872983 0 -3.872983 
C -1.027127 -3.872983 -2.012324 -3.464901 -2.738613 -2.738613 
C -3.464901 -2.012324 -3.872983 -1.027127 -3.872983 0 
C -3.872983 1.027127 -3.464901 2.012324 -2.738613 2.738613 
C -2.012324 3.464901 -1.027127 3.872983 0 3.872983 
z
" style="stroke: #51127c; stroke-opacity: 0.7; stroke-width: 1.5"/>
    </defs>
    <g clip-path="url(#p7e8d23a960)">
     <use xlink:href="#me4c172adaf" x="320.746423" y="149.704096" style="fill: #51127c; fill-opacity: 0.7; stroke: #51127c; stroke-opacity: 0.7; stroke-width: 1.5"/>
     <use xlink:href="#me4c172adaf" x="299.248539" y="169.962836" style="fill: #51127c; fill-opacity: 0.7; stroke: #51127c; stroke-opacity: 0.7; stroke-width: 1.5"/>
     <use xlink:href="#me4c172adaf" x="272.245861" y="185.294636" style="fill: #51127c; fill-opacity: 0.7; stroke: #51127c; stroke-opacity: 0.7; stroke-width: 1.5"/>
     <use xlink:href="#me4c172adaf" x="258.375794" y="198.347332" style="fill: #51127c; fill-opacity: 0.7; stroke: #51127c; stroke-opacity: 0.7; stroke-width: 1.5"/>
     <use xlink:href="#me4c172adaf" x="229.894725" y="207.891266" style="fill: #51127c; fill-opacity: 0.7; stroke: #51127c; stroke-opacity: 0.7; stroke-width: 1.5"/>
     <use xlink:href="#me4c172adaf" x="217.793885" y="213.278404" style="fill: #51127c; fill-opacity: 0.7; stroke: #51127c; stroke-opacity: 0.7; stroke-width: 1.5"/>
     <use xlink:href="#me4c172adaf" x="205.484477" y="216.581213" style="fill: #51127c; fill-opacity: 0.7; stroke: #51127c; stroke-opacity: 0.7; stroke-width: 1.5"/>
     <use xlink:href="#me4c172adaf" x="194.725686" y="220.070198" style="fill: #51127c; fill-opacity: 0.7; stroke: #51127c; stroke-opacity: 0.7; stroke-width: 1.5"/>
     <use xlink:href="#me4c172adaf" x="185.072952" y="223.767594" style="fill: #51127c; fill-opacity: 0.7; stroke: #51127c; stroke-opacity: 0.7; stroke-width: 1.5"/>
     <use xlink:href="#me4c172adaf" x="179.063989" y="226.693165" style="fill: #51127c; fill-opacity: 0.7; stroke: #51127c; stroke-opacity: 0.7; stroke-width: 1.5"/>
     <use xlink:href="#me4c172adaf" x="166.396538" y="229.763857" style="fill: #51127c; fill-opacity: 0.7; stroke: #51127c; stroke-opacity: 0.7; stroke-width: 1.5"/>
     <use xlink:href="#me4c172adaf" x="163.180333" y="231.898999" style="fill: #51127c; fill-opacity: 0.7; stroke: #51127c; stroke-opacity: 0.7; stroke-width: 1.5"/>
     <use xlink:href="#me4c172adaf" x="152.807523" y="234.110416" style="fill: #51127c; fill-opacity: 0.7; stroke: #51127c; stroke-opacity: 0.7; stroke-width: 1.5"/>
     <use xlink:href="#me4c172adaf" x="147.284576" y="236.403752" style="fill: #51127c; fill-opacity: 0.7; stroke: #51127c; stroke-opacity: 0.7; stroke-width: 1.5"/>
     <use xlink:href="#me4c172adaf" x="133.500897" y="238.785318" style="fill: #51127c; fill-opacity: 0.7; stroke: #51127c; stroke-opacity: 0.7; stroke-width: 1.5"/>
    </g>
   </g>
   <g id="PathCollection_3">
    <defs>
     <path id="m35dabba69f" d="M -3.872983 3.872983 
L 3.872983 3.872983 
L 3.872983 -3.872983 
L -3.872983 -3.872983 
z
" style="stroke: #b73779; stroke-opacity: 0.7; stroke-width: 1.5"/>
    </defs>
    <g clip-path="url(#p7e8d23a960)">
     <use xlink:href="#m35dabba69f" x="320.567595" y="134.690802" style="fill: #b73779; fill-opacity: 0.7; stroke: #b73779; stroke-opacity: 0.7; stroke-width: 1.5"/>
     <use xlink:href="#m35dabba69f" x="310.707966" y="144.461112" style="fill: #b73779; fill-opacity: 0.7; stroke: #b73779; stroke-opacity: 0.7; stroke-width: 1.5"/>
     <use xlink:href="#m35dabba69f" x="292.781755" y="158.674757" style="fill: #b73779; fill-opacity: 0.7; stroke: #b73779; stroke-opacity: 0.7; stroke-width: 1.5"/>
     <use xlink:href="#m35dabba69f" x="285.329291" y="164.97643" style="fill: #b73779; fill-opacity: 0.7; stroke: #b73779; stroke-opacity: 0.7; stroke-width: 1.5"/>
     <use xlink:href="#m35dabba69f" x="265.984169" y="174.951815" style="fill: #b73779; fill-opacity: 0.7; stroke: #b73779; stroke-opacity: 0.7; stroke-width: 1.5"/>
     <use xlink:href="#m35dabba69f" x="252.569734" y="178.516137" style="fill: #b73779; fill-opacity: 0.7; stroke: #b73779; stroke-opacity: 0.7; stroke-width: 1.5"/>
     <use xlink:href="#m35dabba69f" x="245.767437" y="184.785063" style="fill: #b73779; fill-opacity: 0.7; stroke: #b73779; stroke-opacity: 0.7; stroke-width: 1.5"/>
     <use xlink:href="#m35dabba69f" x="220.726334" y="193.488915" style="fill: #b73779; fill-opacity: 0.7; stroke: #b73779; stroke-opacity: 0.7; stroke-width: 1.5"/>
     <use xlink:href="#m35dabba69f" x="207.566301" y="209.383218" style="fill: #b73779; fill-opacity: 0.7; stroke: #b73779; stroke-opacity: 0.7; stroke-width: 1.5"/>
     <use xlink:href="#m35dabba69f" x="198.150974" y="213.278404" style="fill: #b73779; fill-opacity: 0.7; stroke: #b73779; stroke-opacity: 0.7; stroke-width: 1.5"/>
     <use xlink:href="#m35dabba69f" x="193.564526" y="216.581213" style="fill: #b73779; fill-opacity: 0.7; stroke: #b73779; stroke-opacity: 0.7; stroke-width: 1.5"/>
     <use xlink:href="#m35dabba69f" x="184.426132" y="219.179345" style="fill: #b73779; fill-opacity: 0.7; stroke: #b73779; stroke-opacity: 0.7; stroke-width: 1.5"/>
     <use xlink:href="#m35dabba69f" x="183.019196" y="220.97405" style="fill: #b73779; fill-opacity: 0.7; stroke: #b73779; stroke-opacity: 0.7; stroke-width: 1.5"/>
     <use xlink:href="#m35dabba69f" x="177.629629" y="223.767594" style="fill: #b73779; fill-opacity: 0.7; stroke: #b73779; stroke-opacity: 0.7; stroke-width: 1.5"/>
     <use xlink:href="#m35dabba69f" x="177.444235" y="225.702533" style="fill: #b73779; fill-opacity: 0.7; stroke: #b73779; stroke-opacity: 0.7; stroke-width: 1.5"/>
    </g>
   </g>
   <g id="PathCollection_4">
    <defs>
     <path id="m805c879195" d="M 0 3.872983 
C 1.027127 3.872983 2.012324 3.464901 2.738613 2.738613 
C 3.464901 2.012324 3.872983 1.027127 3.872983 0 
C 3.872983 -1.027127 3.464901 -2.012324 2.738613 -2.738613 
C 2.012324 -3.464901 1.027127 -3.872983 0 -3.872983 
C -1.027127 -3.872983 -2.012324 -3.464901 -2.738613 -2.738613 
C -3.464901 -2.012324 -3.872983 -1.027127 -3.872983 0 
C -3.872983 1.027127 -3.464901 2.012324 -2.738613 2.738613 
C -2.012324 3.464901 -1.027127 3.872983 0 3.872983 
z
" style="stroke: #b73779; stroke-opacity: 0.7; stroke-width: 1.5"/>
    </defs>
    <g clip-path="url(#p7e8d23a960)">
     <use xlink:href="#m805c879195" x="320.01669" y="127.248041" style="fill: #b73779; fill-opacity: 0.7; stroke: #b73779; stroke-opacity: 0.7; stroke-width: 1.5"/>
     <use xlink:href="#m805c879195" x="303.187653" y="144.726263" style="fill: #b73779; fill-opacity: 0.7; stroke: #b73779; stroke-opacity: 0.7; stroke-width: 1.5"/>
     <use xlink:href="#m805c879195" x="293.494879" y="156.709098" style="fill: #b73779; fill-opacity: 0.7; stroke: #b73779; stroke-opacity: 0.7; stroke-width: 1.5"/>
     <use xlink:href="#m805c879195" x="281.872202" y="167.611424" style="fill: #b73779; fill-opacity: 0.7; stroke: #b73779; stroke-opacity: 0.7; stroke-width: 1.5"/>
     <use xlink:href="#m805c879195" x="274.631911" y="174.951815" style="fill: #b73779; fill-opacity: 0.7; stroke: #b73779; stroke-opacity: 0.7; stroke-width: 1.5"/>
     <use xlink:href="#m805c879195" x="261.06002" y="183.778329" style="fill: #b73779; fill-opacity: 0.7; stroke: #b73779; stroke-opacity: 0.7; stroke-width: 1.5"/>
     <use xlink:href="#m805c879195" x="252.962152" y="190.08" style="fill: #b73779; fill-opacity: 0.7; stroke: #b73779; stroke-opacity: 0.7; stroke-width: 1.5"/>
     <use xlink:href="#m805c879195" x="247.58649" y="197.096522" style="fill: #b73779; fill-opacity: 0.7; stroke: #b73779; stroke-opacity: 0.7; stroke-width: 1.5"/>
     <use xlink:href="#m805c879195" x="228.486115" y="205.011073" style="fill: #b73779; fill-opacity: 0.7; stroke: #b73779; stroke-opacity: 0.7; stroke-width: 1.5"/>
     <use xlink:href="#m805c879195" x="218.641936" y="207.891266" style="fill: #b73779; fill-opacity: 0.7; stroke: #b73779; stroke-opacity: 0.7; stroke-width: 1.5"/>
     <use xlink:href="#m805c879195" x="211.431514" y="210.912011" style="fill: #b73779; fill-opacity: 0.7; stroke: #b73779; stroke-opacity: 0.7; stroke-width: 1.5"/>
     <use xlink:href="#m805c879195" x="205.509969" y="214.087738" style="fill: #b73779; fill-opacity: 0.7; stroke: #b73779; stroke-opacity: 0.7; stroke-width: 1.5"/>
     <use xlink:href="#m805c879195" x="199.903594" y="215.738849" style="fill: #b73779; fill-opacity: 0.7; stroke: #b73779; stroke-opacity: 0.7; stroke-width: 1.5"/>
     <use xlink:href="#m805c879195" x="189.295822" y="217.435201" style="fill: #b73779; fill-opacity: 0.7; stroke: #b73779; stroke-opacity: 0.7; stroke-width: 1.5"/>
     <use xlink:href="#m805c879195" x="187.684437" y="219.179345" style="fill: #b73779; fill-opacity: 0.7; stroke: #b73779; stroke-opacity: 0.7; stroke-width: 1.5"/>
    </g>
   </g>
   <g id="PathCollection_5">
    <defs>
     <path id="meac1f19b86" d="M -3.872983 3.872983 
L 3.872983 3.872983 
L 3.872983 -3.872983 
L -3.872983 -3.872983 
z
" style="stroke: #fc8961; stroke-opacity: 0.7; stroke-width: 1.5"/>
    </defs>
    <g clip-path="url(#p7e8d23a960)">
     <use xlink:href="#meac1f19b86" x="320.845686" y="123.177175" style="fill: #fc8961; fill-opacity: 0.7; stroke: #fc8961; stroke-opacity: 0.7; stroke-width: 1.5"/>
     <use xlink:href="#meac1f19b86" x="307.98061" y="136.061627" style="fill: #fc8961; fill-opacity: 0.7; stroke: #fc8961; stroke-opacity: 0.7; stroke-width: 1.5"/>
     <use xlink:href="#meac1f19b86" x="294.583813" y="148.280743" style="fill: #fc8961; fill-opacity: 0.7; stroke: #fc8961; stroke-opacity: 0.7; stroke-width: 1.5"/>
     <use xlink:href="#meac1f19b86" x="286.381661" y="152.652889" style="fill: #fc8961; fill-opacity: 0.7; stroke: #fc8961; stroke-opacity: 0.7; stroke-width: 1.5"/>
     <use xlink:href="#meac1f19b86" x="273.692967" y="161.396645" style="fill: #fc8961; fill-opacity: 0.7; stroke: #fc8961; stroke-opacity: 0.7; stroke-width: 1.5"/>
     <use xlink:href="#meac1f19b86" x="264.845282" y="165.34606" style="fill: #fc8961; fill-opacity: 0.7; stroke: #fc8961; stroke-opacity: 0.7; stroke-width: 1.5"/>
     <use xlink:href="#meac1f19b86" x="260.951229" y="168.775968" style="fill: #fc8961; fill-opacity: 0.7; stroke: #fc8961; stroke-opacity: 0.7; stroke-width: 1.5"/>
     <use xlink:href="#meac1f19b86" x="251.99514" y="172.407085" style="fill: #fc8961; fill-opacity: 0.7; stroke: #fc8961; stroke-opacity: 0.7; stroke-width: 1.5"/>
     <use xlink:href="#meac1f19b86" x="243.378426" y="178.516137" style="fill: #fc8961; fill-opacity: 0.7; stroke: #fc8961; stroke-opacity: 0.7; stroke-width: 1.5"/>
     <use xlink:href="#meac1f19b86" x="234.79879" y="182.298265" style="fill: #fc8961; fill-opacity: 0.7; stroke: #fc8961; stroke-opacity: 0.7; stroke-width: 1.5"/>
     <use xlink:href="#meac1f19b86" x="222.668983" y="188.443436" style="fill: #fc8961; fill-opacity: 0.7; stroke: #fc8961; stroke-opacity: 0.7; stroke-width: 1.5"/>
     <use xlink:href="#meac1f19b86" x="205.543829" y="195.870482" style="fill: #fc8961; fill-opacity: 0.7; stroke: #fc8961; stroke-opacity: 0.7; stroke-width: 1.5"/>
     <use xlink:href="#meac1f19b86" x="204.406487" y="197.718766" style="fill: #fc8961; fill-opacity: 0.7; stroke: #fc8961; stroke-opacity: 0.7; stroke-width: 1.5"/>
     <use xlink:href="#meac1f19b86" x="193.086621" y="205.011073" style="fill: #fc8961; fill-opacity: 0.7; stroke: #fc8961; stroke-opacity: 0.7; stroke-width: 1.5"/>
     <use xlink:href="#meac1f19b86" x="187.236143" y="209.383218" style="fill: #fc8961; fill-opacity: 0.7; stroke: #fc8961; stroke-opacity: 0.7; stroke-width: 1.5"/>
    </g>
   </g>
   <g id="PathCollection_6">
    <defs>
     <path id="m845935bd5e" d="M 0 3.872983 
C 1.027127 3.872983 2.012324 3.464901 2.738613 2.738613 
C 3.464901 2.012324 3.872983 1.027127 3.872983 0 
C 3.872983 -1.027127 3.464901 -2.012324 2.738613 -2.738613 
C 2.012324 -3.464901 1.027127 -3.872983 0 -3.872983 
C -1.027127 -3.872983 -2.012324 -3.464901 -2.738613 -2.738613 
C -3.464901 -2.012324 -3.872983 -1.027127 -3.872983 0 
C -3.872983 1.027127 -3.464901 2.012324 -2.738613 2.738613 
C -2.012324 3.464901 -1.027127 3.872983 0 3.872983 
z
" style="stroke: #fc8961; stroke-opacity: 0.7; stroke-width: 1.5"/>
    </defs>
    <g clip-path="url(#p7e8d23a960)">
     <use xlink:href="#m845935bd5e" x="311.260415" y="116.429254" style="fill: #fc8961; fill-opacity: 0.7; stroke: #fc8961; stroke-opacity: 0.7; stroke-width: 1.5"/>
     <use xlink:href="#m845935bd5e" x="298.152782" y="130.328926" style="fill: #fc8961; fill-opacity: 0.7; stroke: #fc8961; stroke-opacity: 0.7; stroke-width: 1.5"/>
     <use xlink:href="#m845935bd5e" x="291.055914" y="142.3798" style="fill: #fc8961; fill-opacity: 0.7; stroke: #fc8961; stroke-opacity: 0.7; stroke-width: 1.5"/>
     <use xlink:href="#m845935bd5e" x="285.952936" y="150.866816" style="fill: #fc8961; fill-opacity: 0.7; stroke: #fc8961; stroke-opacity: 0.7; stroke-width: 1.5"/>
     <use xlink:href="#m845935bd5e" x="277.646757" y="159.344091" style="fill: #fc8961; fill-opacity: 0.7; stroke: #fc8961; stroke-opacity: 0.7; stroke-width: 1.5"/>
     <use xlink:href="#m845935bd5e" x="269.237453" y="165.717914" style="fill: #fc8961; fill-opacity: 0.7; stroke: #fc8961; stroke-opacity: 0.7; stroke-width: 1.5"/>
     <use xlink:href="#m845935bd5e" x="268.117233" y="170.766909" style="fill: #fc8961; fill-opacity: 0.7; stroke: #fc8961; stroke-opacity: 0.7; stroke-width: 1.5"/>
     <use xlink:href="#m845935bd5e" x="255.567328" y="177.605638" style="fill: #fc8961; fill-opacity: 0.7; stroke: #fc8961; stroke-opacity: 0.7; stroke-width: 1.5"/>
     <use xlink:href="#m845935bd5e" x="246.498457" y="181.812665" style="fill: #fc8961; fill-opacity: 0.7; stroke: #fc8961; stroke-opacity: 0.7; stroke-width: 1.5"/>
     <use xlink:href="#m845935bd5e" x="249.998032" y="187.907391" style="fill: #fc8961; fill-opacity: 0.7; stroke: #fc8961; stroke-opacity: 0.7; stroke-width: 1.5"/>
     <use xlink:href="#m845935bd5e" x="243.615833" y="191.19558" style="fill: #fc8961; fill-opacity: 0.7; stroke: #fc8961; stroke-opacity: 0.7; stroke-width: 1.5"/>
     <use xlink:href="#m845935bd5e" x="235.46209" y="198.347332" style="fill: #fc8961; fill-opacity: 0.7; stroke: #fc8961; stroke-opacity: 0.7; stroke-width: 1.5"/>
     <use xlink:href="#m845935bd5e" x="229.221383" y="202.93558" style="fill: #fc8961; fill-opacity: 0.7; stroke: #fc8961; stroke-opacity: 0.7; stroke-width: 1.5"/>
     <use xlink:href="#m845935bd5e" x="220.558063" y="206.434423" style="fill: #fc8961; fill-opacity: 0.7; stroke: #fc8961; stroke-opacity: 0.7; stroke-width: 1.5"/>
     <use xlink:href="#m845935bd5e" x="215.231968" y="207.891266" style="fill: #fc8961; fill-opacity: 0.7; stroke: #fc8961; stroke-opacity: 0.7; stroke-width: 1.5"/>
    </g>
   </g>
   <g id="matplotlib.axis_1">
    <g id="xtick_1">
     <g id="line2d_2">
      <defs>
       <path id="mebd849d8da" d="M 0 0 
L 0 3.5 
" style="stroke: #000000; stroke-width: 0.8"/>
      </defs>
      <g>
       <use xlink:href="#mebd849d8da" x="151.2" y="332.64" style="stroke: #000000; stroke-width: 0.8"/>
      </g>
     </g>
     <g id="text_1">
      <!-- 0.75 -->
      <g transform="translate(131.60625 353.01325) scale(0.176 -0.176)">
       <defs>
        <path id="DejaVuSans-30" d="M 2034 4250 
Q 1547 4250 1301 3770 
Q 1056 3291 1056 2328 
Q 1056 1369 1301 889 
Q 1547 409 2034 409 
Q 2525 409 2770 889 
Q 3016 1369 3016 2328 
Q 3016 3291 2770 3770 
Q 2525 4250 2034 4250 
z
M 2034 4750 
Q 2819 4750 3233 4129 
Q 3647 3509 3647 2328 
Q 3647 1150 3233 529 
Q 2819 -91 2034 -91 
Q 1250 -91 836 529 
Q 422 1150 422 2328 
Q 422 3509 836 4129 
Q 1250 4750 2034 4750 
z
" transform="scale(0.015625)"/>
        <path id="DejaVuSans-2e" d="M 684 794 
L 1344 794 
L 1344 0 
L 684 0 
L 684 794 
z
" transform="scale(0.015625)"/>
        <path id="DejaVuSans-37" d="M 525 4666 
L 3525 4666 
L 3525 4397 
L 1831 0 
L 1172 0 
L 2766 4134 
L 525 4134 
L 525 4666 
z
" transform="scale(0.015625)"/>
        <path id="DejaVuSans-35" d="M 691 4666 
L 3169 4666 
L 3169 4134 
L 1269 4134 
L 1269 2991 
Q 1406 3038 1543 3061 
Q 1681 3084 1819 3084 
Q 2600 3084 3056 2656 
Q 3513 2228 3513 1497 
Q 3513 744 3044 326 
Q 2575 -91 1722 -91 
Q 1428 -91 1123 -41 
Q 819 9 494 109 
L 494 744 
Q 775 591 1075 516 
Q 1375 441 1709 441 
Q 2250 441 2565 725 
Q 2881 1009 2881 1497 
Q 2881 1984 2565 2268 
Q 2250 2553 1709 2553 
Q 1456 2553 1204 2497 
Q 953 2441 691 2322 
L 691 4666 
z
" transform="scale(0.015625)"/>
       </defs>
       <use xlink:href="#DejaVuSans-30"/>
       <use xlink:href="#DejaVuSans-2e" x="63.623047"/>
       <use xlink:href="#DejaVuSans-37" x="95.410156"/>
       <use xlink:href="#DejaVuSans-35" x="159.033203"/>
      </g>
     </g>
    </g>
    <g id="xtick_2">
     <g id="line2d_3">
      <g>
       <use xlink:href="#mebd849d8da" x="259.2" y="332.64" style="stroke: #000000; stroke-width: 0.8"/>
      </g>
     </g>
     <g id="text_2">
      <!-- 0.80 -->
      <g transform="translate(239.60625 353.01325) scale(0.176 -0.176)">
       <defs>
        <path id="DejaVuSans-38" d="M 2034 2216 
Q 1584 2216 1326 1975 
Q 1069 1734 1069 1313 
Q 1069 891 1326 650 
Q 1584 409 2034 409 
Q 2484 409 2743 651 
Q 3003 894 3003 1313 
Q 3003 1734 2745 1975 
Q 2488 2216 2034 2216 
z
M 1403 2484 
Q 997 2584 770 2862 
Q 544 3141 544 3541 
Q 544 4100 942 4425 
Q 1341 4750 2034 4750 
Q 2731 4750 3128 4425 
Q 3525 4100 3525 3541 
Q 3525 3141 3298 2862 
Q 3072 2584 2669 2484 
Q 3125 2378 3379 2068 
Q 3634 1759 3634 1313 
Q 3634 634 3220 271 
Q 2806 -91 2034 -91 
Q 1263 -91 848 271 
Q 434 634 434 1313 
Q 434 1759 690 2068 
Q 947 2378 1403 2484 
z
M 1172 3481 
Q 1172 3119 1398 2916 
Q 1625 2713 2034 2713 
Q 2441 2713 2670 2916 
Q 2900 3119 2900 3481 
Q 2900 3844 2670 4047 
Q 2441 4250 2034 4250 
Q 1625 4250 1398 4047 
Q 1172 3844 1172 3481 
z
" transform="scale(0.015625)"/>
       </defs>
       <use xlink:href="#DejaVuSans-30"/>
       <use xlink:href="#DejaVuSans-2e" x="63.623047"/>
       <use xlink:href="#DejaVuSans-38" x="95.410156"/>
       <use xlink:href="#DejaVuSans-30" x="159.033203"/>
      </g>
     </g>
    </g>
    <g id="xtick_3">
     <g id="line2d_4">
      <g>
       <use xlink:href="#mebd849d8da" x="367.2" y="332.64" style="stroke: #000000; stroke-width: 0.8"/>
      </g>
     </g>
     <g id="text_3">
      <!-- 0.85 -->
      <g transform="translate(347.60625 353.01325) scale(0.176 -0.176)">
       <use xlink:href="#DejaVuSans-30"/>
       <use xlink:href="#DejaVuSans-2e" x="63.623047"/>
       <use xlink:href="#DejaVuSans-38" x="95.410156"/>
       <use xlink:href="#DejaVuSans-35" x="159.033203"/>
      </g>
     </g>
    </g>
    <g id="text_4">
     <!-- accuracy -->
     <g transform="translate(187.969375 377.390062) scale(0.22 -0.22)">
      <defs>
       <path id="DejaVuSans-61" d="M 2194 1759 
Q 1497 1759 1228 1600 
Q 959 1441 959 1056 
Q 959 750 1161 570 
Q 1363 391 1709 391 
Q 2188 391 2477 730 
Q 2766 1069 2766 1631 
L 2766 1759 
L 2194 1759 
z
M 3341 1997 
L 3341 0 
L 2766 0 
L 2766 531 
Q 2569 213 2275 61 
Q 1981 -91 1556 -91 
Q 1019 -91 701 211 
Q 384 513 384 1019 
Q 384 1609 779 1909 
Q 1175 2209 1959 2209 
L 2766 2209 
L 2766 2266 
Q 2766 2663 2505 2880 
Q 2244 3097 1772 3097 
Q 1472 3097 1187 3025 
Q 903 2953 641 2809 
L 641 3341 
Q 956 3463 1253 3523 
Q 1550 3584 1831 3584 
Q 2591 3584 2966 3190 
Q 3341 2797 3341 1997 
z
" transform="scale(0.015625)"/>
       <path id="DejaVuSans-63" d="M 3122 3366 
L 3122 2828 
Q 2878 2963 2633 3030 
Q 2388 3097 2138 3097 
Q 1578 3097 1268 2742 
Q 959 2388 959 1747 
Q 959 1106 1268 751 
Q 1578 397 2138 397 
Q 2388 397 2633 464 
Q 2878 531 3122 666 
L 3122 134 
Q 2881 22 2623 -34 
Q 2366 -91 2075 -91 
Q 1284 -91 818 406 
Q 353 903 353 1747 
Q 353 2603 823 3093 
Q 1294 3584 2113 3584 
Q 2378 3584 2631 3529 
Q 2884 3475 3122 3366 
z
" transform="scale(0.015625)"/>
       <path id="DejaVuSans-75" d="M 544 1381 
L 544 3500 
L 1119 3500 
L 1119 1403 
Q 1119 906 1312 657 
Q 1506 409 1894 409 
Q 2359 409 2629 706 
Q 2900 1003 2900 1516 
L 2900 3500 
L 3475 3500 
L 3475 0 
L 2900 0 
L 2900 538 
Q 2691 219 2414 64 
Q 2138 -91 1772 -91 
Q 1169 -91 856 284 
Q 544 659 544 1381 
z
M 1991 3584 
L 1991 3584 
z
" transform="scale(0.015625)"/>
       <path id="DejaVuSans-72" d="M 2631 2963 
Q 2534 3019 2420 3045 
Q 2306 3072 2169 3072 
Q 1681 3072 1420 2755 
Q 1159 2438 1159 1844 
L 1159 0 
L 581 0 
L 581 3500 
L 1159 3500 
L 1159 2956 
Q 1341 3275 1631 3429 
Q 1922 3584 2338 3584 
Q 2397 3584 2469 3576 
Q 2541 3569 2628 3553 
L 2631 2963 
z
" transform="scale(0.015625)"/>
       <path id="DejaVuSans-79" d="M 2059 -325 
Q 1816 -950 1584 -1140 
Q 1353 -1331 966 -1331 
L 506 -1331 
L 506 -850 
L 844 -850 
Q 1081 -850 1212 -737 
Q 1344 -625 1503 -206 
L 1606 56 
L 191 3500 
L 800 3500 
L 1894 763 
L 2988 3500 
L 3597 3500 
L 2059 -325 
z
" transform="scale(0.015625)"/>
      </defs>
      <use xlink:href="#DejaVuSans-61"/>
      <use xlink:href="#DejaVuSans-63" x="61.279297"/>
      <use xlink:href="#DejaVuSans-63" x="116.259766"/>
      <use xlink:href="#DejaVuSans-75" x="171.240234"/>
      <use xlink:href="#DejaVuSans-72" x="234.619141"/>
      <use xlink:href="#DejaVuSans-61" x="275.732422"/>
      <use xlink:href="#DejaVuSans-63" x="337.011719"/>
      <use xlink:href="#DejaVuSans-79" x="391.992188"/>
     </g>
    </g>
   </g>
   <g id="matplotlib.axis_2">
    <g id="ytick_1">
     <g id="line2d_5">
      <defs>
       <path id="ma668d821f7" d="M 0 0 
L -3.5 0 
" style="stroke: #000000; stroke-width: 0.8"/>
      </defs>
      <g>
       <use xlink:href="#ma668d821f7" x="86.4" y="332.64" style="stroke: #000000; stroke-width: 0.8"/>
      </g>
     </g>
     <g id="text_5">
      <!-- $\mathdefault{10^{-1}}$ -->
      <g transform="translate(38.04 339.326625) scale(0.176 -0.176)">
       <defs>
        <path id="DejaVuSans-31" d="M 794 531 
L 1825 531 
L 1825 4091 
L 703 3866 
L 703 4441 
L 1819 4666 
L 2450 4666 
L 2450 531 
L 3481 531 
L 3481 0 
L 794 0 
L 794 531 
z
" transform="scale(0.015625)"/>
        <path id="DejaVuSans-2212" d="M 678 2272 
L 4684 2272 
L 4684 1741 
L 678 1741 
L 678 2272 
z
" transform="scale(0.015625)"/>
       </defs>
       <use xlink:href="#DejaVuSans-31" transform="translate(0 0.684375)"/>
       <use xlink:href="#DejaVuSans-30" transform="translate(63.623047 0.684375)"/>
       <use xlink:href="#DejaVuSans-2212" transform="translate(128.203125 38.965625) scale(0.7)"/>
       <use xlink:href="#DejaVuSans-31" transform="translate(186.855469 38.965625) scale(0.7)"/>
      </g>
     </g>
    </g>
    <g id="ytick_2">
     <g id="line2d_6">
      <g>
       <use xlink:href="#ma668d821f7" x="86.4" y="190.08" style="stroke: #000000; stroke-width: 0.8"/>
      </g>
     </g>
     <g id="text_6">
      <!-- $\mathdefault{10^{0}}$ -->
      <g transform="translate(48.424 196.766625) scale(0.176 -0.176)">
       <use xlink:href="#DejaVuSans-31" transform="translate(0 0.765625)"/>
       <use xlink:href="#DejaVuSans-30" transform="translate(63.623047 0.765625)"/>
       <use xlink:href="#DejaVuSans-30" transform="translate(128.203125 39.046875) scale(0.7)"/>
      </g>
     </g>
    </g>
    <g id="ytick_3">
     <g id="line2d_7">
      <g>
       <use xlink:href="#ma668d821f7" x="86.4" y="47.52" style="stroke: #000000; stroke-width: 0.8"/>
      </g>
     </g>
     <g id="text_7">
      <!-- $\mathdefault{10^{1}}$ -->
      <g transform="translate(48.424 54.206625) scale(0.176 -0.176)">
       <use xlink:href="#DejaVuSans-31" transform="translate(0 0.684375)"/>
       <use xlink:href="#DejaVuSans-30" transform="translate(63.623047 0.684375)"/>
       <use xlink:href="#DejaVuSans-31" transform="translate(128.203125 38.965625) scale(0.7)"/>
      </g>
     </g>
    </g>
    <g id="ytick_4">
     <g id="line2d_8">
      <defs>
       <path id="madcc5f14d1" d="M 0 0 
L -2 0 
" style="stroke: #000000; stroke-width: 0.6"/>
      </defs>
      <g>
       <use xlink:href="#madcc5f14d1" x="86.4" y="289.725164" style="stroke: #000000; stroke-width: 0.6"/>
      </g>
     </g>
    </g>
    <g id="ytick_5">
     <g id="line2d_9">
      <g>
       <use xlink:href="#madcc5f14d1" x="86.4" y="264.621594" style="stroke: #000000; stroke-width: 0.6"/>
      </g>
     </g>
    </g>
    <g id="ytick_6">
     <g id="line2d_10">
      <g>
       <use xlink:href="#madcc5f14d1" x="86.4" y="246.810328" style="stroke: #000000; stroke-width: 0.6"/>
      </g>
     </g>
    </g>
    <g id="ytick_7">
     <g id="line2d_11">
      <g>
       <use xlink:href="#madcc5f14d1" x="86.4" y="232.994836" style="stroke: #000000; stroke-width: 0.6"/>
      </g>
     </g>
    </g>
    <g id="ytick_8">
     <g id="line2d_12">
      <g>
       <use xlink:href="#madcc5f14d1" x="86.4" y="221.706758" style="stroke: #000000; stroke-width: 0.6"/>
      </g>
     </g>
    </g>
    <g id="ytick_9">
     <g id="line2d_13">
      <g>
       <use xlink:href="#madcc5f14d1" x="86.4" y="212.162823" style="stroke: #000000; stroke-width: 0.6"/>
      </g>
     </g>
    </g>
    <g id="ytick_10">
     <g id="line2d_14">
      <g>
       <use xlink:href="#madcc5f14d1" x="86.4" y="203.895491" style="stroke: #000000; stroke-width: 0.6"/>
      </g>
     </g>
    </g>
    <g id="ytick_11">
     <g id="line2d_15">
      <g>
       <use xlink:href="#madcc5f14d1" x="86.4" y="196.603188" style="stroke: #000000; stroke-width: 0.6"/>
      </g>
     </g>
    </g>
    <g id="ytick_12">
     <g id="line2d_16">
      <g>
       <use xlink:href="#madcc5f14d1" x="86.4" y="147.165164" style="stroke: #000000; stroke-width: 0.6"/>
      </g>
     </g>
    </g>
    <g id="ytick_13">
     <g id="line2d_17">
      <g>
       <use xlink:href="#madcc5f14d1" x="86.4" y="122.061594" style="stroke: #000000; stroke-width: 0.6"/>
      </g>
     </g>
    </g>
    <g id="ytick_14">
     <g id="line2d_18">
      <g>
       <use xlink:href="#madcc5f14d1" x="86.4" y="104.250328" style="stroke: #000000; stroke-width: 0.6"/>
      </g>
     </g>
    </g>
    <g id="ytick_15">
     <g id="line2d_19">
      <g>
       <use xlink:href="#madcc5f14d1" x="86.4" y="90.434836" style="stroke: #000000; stroke-width: 0.6"/>
      </g>
     </g>
    </g>
    <g id="ytick_16">
     <g id="line2d_20">
      <g>
       <use xlink:href="#madcc5f14d1" x="86.4" y="79.146758" style="stroke: #000000; stroke-width: 0.6"/>
      </g>
     </g>
    </g>
    <g id="ytick_17">
     <g id="line2d_21">
      <g>
       <use xlink:href="#madcc5f14d1" x="86.4" y="69.602823" style="stroke: #000000; stroke-width: 0.6"/>
      </g>
     </g>
    </g>
    <g id="ytick_18">
     <g id="line2d_22">
      <g>
       <use xlink:href="#madcc5f14d1" x="86.4" y="61.335491" style="stroke: #000000; stroke-width: 0.6"/>
      </g>
     </g>
    </g>
    <g id="ytick_19">
     <g id="line2d_23">
      <g>
       <use xlink:href="#madcc5f14d1" x="86.4" y="54.043188" style="stroke: #000000; stroke-width: 0.6"/>
      </g>
     </g>
    </g>
    <g id="text_8">
     <!-- dimensionality       -->
     <g transform="translate(23.464687 291.713125) rotate(-90) scale(0.22 -0.22)">
      <defs>
       <path id="DejaVuSans-64" d="M 2906 2969 
L 2906 4863 
L 3481 4863 
L 3481 0 
L 2906 0 
L 2906 525 
Q 2725 213 2448 61 
Q 2172 -91 1784 -91 
Q 1150 -91 751 415 
Q 353 922 353 1747 
Q 353 2572 751 3078 
Q 1150 3584 1784 3584 
Q 2172 3584 2448 3432 
Q 2725 3281 2906 2969 
z
M 947 1747 
Q 947 1113 1208 752 
Q 1469 391 1925 391 
Q 2381 391 2643 752 
Q 2906 1113 2906 1747 
Q 2906 2381 2643 2742 
Q 2381 3103 1925 3103 
Q 1469 3103 1208 2742 
Q 947 2381 947 1747 
z
" transform="scale(0.015625)"/>
       <path id="DejaVuSans-69" d="M 603 3500 
L 1178 3500 
L 1178 0 
L 603 0 
L 603 3500 
z
M 603 4863 
L 1178 4863 
L 1178 4134 
L 603 4134 
L 603 4863 
z
" transform="scale(0.015625)"/>
       <path id="DejaVuSans-6d" d="M 3328 2828 
Q 3544 3216 3844 3400 
Q 4144 3584 4550 3584 
Q 5097 3584 5394 3201 
Q 5691 2819 5691 2113 
L 5691 0 
L 5113 0 
L 5113 2094 
Q 5113 2597 4934 2840 
Q 4756 3084 4391 3084 
Q 3944 3084 3684 2787 
Q 3425 2491 3425 1978 
L 3425 0 
L 2847 0 
L 2847 2094 
Q 2847 2600 2669 2842 
Q 2491 3084 2119 3084 
Q 1678 3084 1418 2786 
Q 1159 2488 1159 1978 
L 1159 0 
L 581 0 
L 581 3500 
L 1159 3500 
L 1159 2956 
Q 1356 3278 1631 3431 
Q 1906 3584 2284 3584 
Q 2666 3584 2933 3390 
Q 3200 3197 3328 2828 
z
" transform="scale(0.015625)"/>
       <path id="DejaVuSans-65" d="M 3597 1894 
L 3597 1613 
L 953 1613 
Q 991 1019 1311 708 
Q 1631 397 2203 397 
Q 2534 397 2845 478 
Q 3156 559 3463 722 
L 3463 178 
Q 3153 47 2828 -22 
Q 2503 -91 2169 -91 
Q 1331 -91 842 396 
Q 353 884 353 1716 
Q 353 2575 817 3079 
Q 1281 3584 2069 3584 
Q 2775 3584 3186 3129 
Q 3597 2675 3597 1894 
z
M 3022 2063 
Q 3016 2534 2758 2815 
Q 2500 3097 2075 3097 
Q 1594 3097 1305 2825 
Q 1016 2553 972 2059 
L 3022 2063 
z
" transform="scale(0.015625)"/>
       <path id="DejaVuSans-6e" d="M 3513 2113 
L 3513 0 
L 2938 0 
L 2938 2094 
Q 2938 2591 2744 2837 
Q 2550 3084 2163 3084 
Q 1697 3084 1428 2787 
Q 1159 2491 1159 1978 
L 1159 0 
L 581 0 
L 581 3500 
L 1159 3500 
L 1159 2956 
Q 1366 3272 1645 3428 
Q 1925 3584 2291 3584 
Q 2894 3584 3203 3211 
Q 3513 2838 3513 2113 
z
" transform="scale(0.015625)"/>
       <path id="DejaVuSans-73" d="M 2834 3397 
L 2834 2853 
Q 2591 2978 2328 3040 
Q 2066 3103 1784 3103 
Q 1356 3103 1142 2972 
Q 928 2841 928 2578 
Q 928 2378 1081 2264 
Q 1234 2150 1697 2047 
L 1894 2003 
Q 2506 1872 2764 1633 
Q 3022 1394 3022 966 
Q 3022 478 2636 193 
Q 2250 -91 1575 -91 
Q 1294 -91 989 -36 
Q 684 19 347 128 
L 347 722 
Q 666 556 975 473 
Q 1284 391 1588 391 
Q 1994 391 2212 530 
Q 2431 669 2431 922 
Q 2431 1156 2273 1281 
Q 2116 1406 1581 1522 
L 1381 1569 
Q 847 1681 609 1914 
Q 372 2147 372 2553 
Q 372 3047 722 3315 
Q 1072 3584 1716 3584 
Q 2034 3584 2315 3537 
Q 2597 3491 2834 3397 
z
" transform="scale(0.015625)"/>
       <path id="DejaVuSans-6f" d="M 1959 3097 
Q 1497 3097 1228 2736 
Q 959 2375 959 1747 
Q 959 1119 1226 758 
Q 1494 397 1959 397 
Q 2419 397 2687 759 
Q 2956 1122 2956 1747 
Q 2956 2369 2687 2733 
Q 2419 3097 1959 3097 
z
M 1959 3584 
Q 2709 3584 3137 3096 
Q 3566 2609 3566 1747 
Q 3566 888 3137 398 
Q 2709 -91 1959 -91 
Q 1206 -91 779 398 
Q 353 888 353 1747 
Q 353 2609 779 3096 
Q 1206 3584 1959 3584 
z
" transform="scale(0.015625)"/>
       <path id="DejaVuSans-6c" d="M 603 4863 
L 1178 4863 
L 1178 0 
L 603 0 
L 603 4863 
z
" transform="scale(0.015625)"/>
       <path id="DejaVuSans-74" d="M 1172 4494 
L 1172 3500 
L 2356 3500 
L 2356 3053 
L 1172 3053 
L 1172 1153 
Q 1172 725 1289 603 
Q 1406 481 1766 481 
L 2356 481 
L 2356 0 
L 1766 0 
Q 1100 0 847 248 
Q 594 497 594 1153 
L 594 3053 
L 172 3053 
L 172 3500 
L 594 3500 
L 594 4494 
L 1172 4494 
z
" transform="scale(0.015625)"/>
       <path id="DejaVuSans-20" transform="scale(0.015625)"/>
      </defs>
      <use xlink:href="#DejaVuSans-64"/>
      <use xlink:href="#DejaVuSans-69" x="63.476562"/>
      <use xlink:href="#DejaVuSans-6d" x="91.259766"/>
      <use xlink:href="#DejaVuSans-65" x="188.671875"/>
      <use xlink:href="#DejaVuSans-6e" x="250.195312"/>
      <use xlink:href="#DejaVuSans-73" x="313.574219"/>
      <use xlink:href="#DejaVuSans-69" x="365.673828"/>
      <use xlink:href="#DejaVuSans-6f" x="393.457031"/>
      <use xlink:href="#DejaVuSans-6e" x="454.638672"/>
      <use xlink:href="#DejaVuSans-61" x="518.017578"/>
      <use xlink:href="#DejaVuSans-6c" x="579.296875"/>
      <use xlink:href="#DejaVuSans-69" x="607.080078"/>
      <use xlink:href="#DejaVuSans-74" x="634.863281"/>
      <use xlink:href="#DejaVuSans-79" x="674.072266"/>
      <use xlink:href="#DejaVuSans-20" x="733.251953"/>
      <use xlink:href="#DejaVuSans-20" x="765.039062"/>
      <use xlink:href="#DejaVuSans-20" x="796.826172"/>
      <use xlink:href="#DejaVuSans-20" x="828.613281"/>
      <use xlink:href="#DejaVuSans-20" x="860.400391"/>
      <use xlink:href="#DejaVuSans-20" x="892.1875"/>
     </g>
    </g>
   </g>
   <g id="patch_3">
    <path d="M 86.4 332.64 
L 86.4 47.52 
" style="fill: none; stroke: #000000; stroke-width: 0.8; stroke-linejoin: miter; stroke-linecap: square"/>
   </g>
   <g id="patch_4">
    <path d="M 86.4 332.64 
L 388.8 332.64 
" style="fill: none; stroke: #000000; stroke-width: 0.8; stroke-linejoin: miter; stroke-linecap: square"/>
   </g>
  </g>
 </g>
 <defs>
  <clipPath id="p7e8d23a960">
   <rect x="86.4" y="47.52" width="302.4" height="285.12"/>
  </clipPath>
 </defs>
</svg>
