<?xml version="1.0" encoding="utf-8" standalone="no"?>
<!DOCTYPE svg PUBLIC "-//W3C//DTD SVG 1.1//EN"
  "http://www.w3.org/Graphics/SVG/1.1/DTD/svg11.dtd">
<svg xmlns:xlink="http://www.w3.org/1999/xlink" width="504pt" height="432pt" viewBox="0 0 504 432" xmlns="http://www.w3.org/2000/svg" version="1.1">
 <metadata>
  <rdf:RDF xmlns:dc="http://purl.org/dc/elements/1.1/" xmlns:cc="http://creativecommons.org/ns#" xmlns:rdf="http://www.w3.org/1999/02/22-rdf-syntax-ns#">
   <cc:Work>
    <dc:type rdf:resource="http://purl.org/dc/dcmitype/StillImage"/>
    <dc:date>2026-02-07T18:52:48.917324</dc:date>
    <dc:format>image/svg+xml</dc:format>
    <dc:creator>
     <cc:Agent>
      <dc:title>Matplotlib v3.10.8, https://matplotlib.org/</dc:title>
     </cc:Agent>
    </dc:creator>
   </cc:Work>
  </rdf:RDF>
 </metadata>
 <defs>
  <style type="text/css">*{stroke-linejoin: round; stroke-linecap: butt}</style>
 </defs>
 <g id="figure_1">
  <g id="patch_1">
   <path d="M 0 432 
L 504 432 
L 504 0 
L 0 0 
z
" style="fill: #ffffff"/>
  </g>
  <g id="axes_1">
   <g id="patch_2">
    <path d="M 90.92 365.56 
L 493.2 365.56 
L 493.2 10.8 
L 90.92 10.8 
z
" style="fill: #ffffff"/>
   </g>
   <g id="matplotlib.axis_1">
    <g id="xtick_1">
     <g id="line2d_1">
      <defs>
       <path id="me5c50ca567" d="M 0 0 
L 0 3.5 
" style="stroke: #000000; stroke-width: 0.8"/>
      </defs>
      <g>
       <use xlink:href="#me5c50ca567" x="109.205455" y="365.56" style="stroke: #000000; stroke-width: 0.8"/>
      </g>
     </g>
     <g id="text_1">
      <!-- 0 -->
      <g transform="translate(102.842955 387.756875) scale(0.2 -0.2)">
       <defs>
        <path id="DejaVuSans-30" d="M 2034 4250 
Q 1547 4250 1301 3770 
Q 1056 3291 1056 2328 
Q 1056 1369 1301 889 
Q 1547 409 2034 409 
Q 2525 409 2770 889 
Q 3016 1369 3016 2328 
Q 3016 3291 2770 3770 
Q 2525 4250 2034 4250 
z
M 2034 4750 
Q 2819 4750 3233 4129 
Q 3647 3509 3647 2328 
Q 3647 1150 3233 529 
Q 2819 -91 2034 -91 
Q 1250 -91 836 529 
Q 422 1150 422 2328 
Q 422 3509 836 4129 
Q 1250 4750 2034 4750 
z
" transform="scale(0.015625)"/>
       </defs>
       <use xlink:href="#DejaVuSans-30"/>
      </g>
     </g>
    </g>
    <g id="xtick_2">
     <g id="line2d_2">
      <g>
       <use xlink:href="#me5c50ca567" x="292.06" y="365.56" style="stroke: #000000; stroke-width: 0.8"/>
      </g>
     </g>
     <g id="text_2">
      <!-- 0.05 -->
      <g transform="translate(269.794375 387.756875) scale(0.2 -0.2)">
       <defs>
        <path id="DejaVuSans-2e" d="M 684 794 
L 1344 794 
L 1344 0 
L 684 0 
L 684 794 
z
" transform="scale(0.015625)"/>
        <path id="DejaVuSans-35" d="M 691 4666 
L 3169 4666 
L 3169 4134 
L 1269 4134 
L 1269 2991 
Q 1406 3038 1543 3061 
Q 1681 3084 1819 3084 
Q 2600 3084 3056 2656 
Q 3513 2228 3513 1497 
Q 3513 744 3044 326 
Q 2575 -91 1722 -91 
Q 1428 -91 1123 -41 
Q 819 9 494 109 
L 494 744 
Q 775 591 1075 516 
Q 1375 441 1709 441 
Q 2250 441 2565 725 
Q 2881 1009 2881 1497 
Q 2881 1984 2565 2268 
Q 2250 2553 1709 2553 
Q 1456 2553 1204 2497 
Q 953 2441 691 2322 
L 691 4666 
z
" transform="scale(0.015625)"/>
       </defs>
       <use xlink:href="#DejaVuSans-30"/>
       <use xlink:href="#DejaVuSans-2e" transform="translate(63.623047 0)"/>
       <use xlink:href="#DejaVuSans-30" transform="translate(95.410156 0)"/>
       <use xlink:href="#DejaVuSans-35" transform="translate(159.033203 0)"/>
      </g>
     </g>
    </g>
    <g id="xtick_3">
     <g id="line2d_3">
      <g>
       <use xlink:href="#me5c50ca567" x="474.914545" y="365.56" style="stroke: #000000; stroke-width: 0.8"/>
      </g>
     </g>
     <g id="text_3">
      <!-- 0.1 -->
      <g transform="translate(459.01142 387.756875) scale(0.2 -0.2)">
       <defs>
        <path id="DejaVuSans-31" d="M 794 531 
L 1825 531 
L 1825 4091 
L 703 3866 
L 703 4441 
L 1819 4666 
L 2450 4666 
L 2450 531 
L 3481 531 
L 3481 0 
L 794 0 
L 794 531 
z
" transform="scale(0.015625)"/>
       </defs>
       <use xlink:href="#DejaVuSans-30"/>
       <use xlink:href="#DejaVuSans-2e" transform="translate(63.623047 0)"/>
       <use xlink:href="#DejaVuSans-31" transform="translate(95.410156 0)"/>
      </g>
     </g>
    </g>
    <g id="text_4">
     <!-- noise intensity            -->
     <g transform="translate(156.950625 414.912344) scale(0.25 -0.25)">
      <defs>
       <path id="DejaVuSans-6e" d="M 3513 2113 
L 3513 0 
L 2938 0 
L 2938 2094 
Q 2938 2591 2744 2837 
Q 2550 3084 2163 3084 
Q 1697 3084 1428 2787 
Q 1159 2491 1159 1978 
L 1159 0 
L 581 0 
L 581 3500 
L 1159 3500 
L 1159 2956 
Q 1366 3272 1645 3428 
Q 1925 3584 2291 3584 
Q 2894 3584 3203 3211 
Q 3513 2838 3513 2113 
z
" transform="scale(0.015625)"/>
       <path id="DejaVuSans-6f" d="M 1959 3097 
Q 1497 3097 1228 2736 
Q 959 2375 959 1747 
Q 959 1119 1226 758 
Q 1494 397 1959 397 
Q 2419 397 2687 759 
Q 2956 1122 2956 1747 
Q 2956 2369 2687 2733 
Q 2419 3097 1959 3097 
z
M 1959 3584 
Q 2709 3584 3137 3096 
Q 3566 2609 3566 1747 
Q 3566 888 3137 398 
Q 2709 -91 1959 -91 
Q 1206 -91 779 398 
Q 353 888 353 1747 
Q 353 2609 779 3096 
Q 1206 3584 1959 3584 
z
" transform="scale(0.015625)"/>
       <path id="DejaVuSans-69" d="M 603 3500 
L 1178 3500 
L 1178 0 
L 603 0 
L 603 3500 
z
M 603 4863 
L 1178 4863 
L 1178 4134 
L 603 4134 
L 603 4863 
z
" transform="scale(0.015625)"/>
       <path id="DejaVuSans-73" d="M 2834 3397 
L 2834 2853 
Q 2591 2978 2328 3040 
Q 2066 3103 1784 3103 
Q 1356 3103 1142 2972 
Q 928 2841 928 2578 
Q 928 2378 1081 2264 
Q 1234 2150 1697 2047 
L 1894 2003 
Q 2506 1872 2764 1633 
Q 3022 1394 3022 966 
Q 3022 478 2636 193 
Q 2250 -91 1575 -91 
Q 1294 -91 989 -36 
Q 684 19 347 128 
L 347 722 
Q 666 556 975 473 
Q 1284 391 1588 391 
Q 1994 391 2212 530 
Q 2431 669 2431 922 
Q 2431 1156 2273 1281 
Q 2116 1406 1581 1522 
L 1381 1569 
Q 847 1681 609 1914 
Q 372 2147 372 2553 
Q 372 3047 722 3315 
Q 1072 3584 1716 3584 
Q 2034 3584 2315 3537 
Q 2597 3491 2834 3397 
z
" transform="scale(0.015625)"/>
       <path id="DejaVuSans-65" d="M 3597 1894 
L 3597 1613 
L 953 1613 
Q 991 1019 1311 708 
Q 1631 397 2203 397 
Q 2534 397 2845 478 
Q 3156 559 3463 722 
L 3463 178 
Q 3153 47 2828 -22 
Q 2503 -91 2169 -91 
Q 1331 -91 842 396 
Q 353 884 353 1716 
Q 353 2575 817 3079 
Q 1281 3584 2069 3584 
Q 2775 3584 3186 3129 
Q 3597 2675 3597 1894 
z
M 3022 2063 
Q 3016 2534 2758 2815 
Q 2500 3097 2075 3097 
Q 1594 3097 1305 2825 
Q 1016 2553 972 2059 
L 3022 2063 
z
" transform="scale(0.015625)"/>
       <path id="DejaVuSans-20" transform="scale(0.015625)"/>
       <path id="DejaVuSans-74" d="M 1172 4494 
L 1172 3500 
L 2356 3500 
L 2356 3053 
L 1172 3053 
L 1172 1153 
Q 1172 725 1289 603 
Q 1406 481 1766 481 
L 2356 481 
L 2356 0 
L 1766 0 
Q 1100 0 847 248 
Q 594 497 594 1153 
L 594 3053 
L 172 3053 
L 172 3500 
L 594 3500 
L 594 4494 
L 1172 4494 
z
" transform="scale(0.015625)"/>
       <path id="DejaVuSans-79" d="M 2059 -325 
Q 1816 -950 1584 -1140 
Q 1353 -1331 966 -1331 
L 506 -1331 
L 506 -850 
L 844 -850 
Q 1081 -850 1212 -737 
Q 1344 -625 1503 -206 
L 1606 56 
L 191 3500 
L 800 3500 
L 1894 763 
L 2988 3500 
L 3597 3500 
L 2059 -325 
z
" transform="scale(0.015625)"/>
      </defs>
      <use xlink:href="#DejaVuSans-6e"/>
      <use xlink:href="#DejaVuSans-6f" transform="translate(63.378906 0)"/>
      <use xlink:href="#DejaVuSans-69" transform="translate(124.560547 0)"/>
      <use xlink:href="#DejaVuSans-73" transform="translate(152.34375 0)"/>
      <use xlink:href="#DejaVuSans-65" transform="translate(204.443359 0)"/>
      <use xlink:href="#DejaVuSans-20" transform="translate(265.966797 0)"/>
      <use xlink:href="#DejaVuSans-69" transform="translate(297.753906 0)"/>
      <use xlink:href="#DejaVuSans-6e" transform="translate(325.537109 0)"/>
      <use xlink:href="#DejaVuSans-74" transform="translate(388.916016 0)"/>
      <use xlink:href="#DejaVuSans-65" transform="translate(428.125 0)"/>
      <use xlink:href="#DejaVuSans-6e" transform="translate(489.648438 0)"/>
      <use xlink:href="#DejaVuSans-73" transform="translate(553.027344 0)"/>
      <use xlink:href="#DejaVuSans-69" transform="translate(605.126953 0)"/>
      <use xlink:href="#DejaVuSans-74" transform="translate(632.910156 0)"/>
      <use xlink:href="#DejaVuSans-79" transform="translate(672.119141 0)"/>
      <use xlink:href="#DejaVuSans-20" transform="translate(731.298828 0)"/>
      <use xlink:href="#DejaVuSans-20" transform="translate(763.085938 0)"/>
      <use xlink:href="#DejaVuSans-20" transform="translate(794.873047 0)"/>
      <use xlink:href="#DejaVuSans-20" transform="translate(826.660156 0)"/>
      <use xlink:href="#DejaVuSans-20" transform="translate(858.447266 0)"/>
      <use xlink:href="#DejaVuSans-20" transform="translate(890.234375 0)"/>
      <use xlink:href="#DejaVuSans-20" transform="translate(922.021484 0)"/>
      <use xlink:href="#DejaVuSans-20" transform="translate(953.808594 0)"/>
      <use xlink:href="#DejaVuSans-20" transform="translate(985.595703 0)"/>
      <use xlink:href="#DejaVuSans-20" transform="translate(1017.382812 0)"/>
      <use xlink:href="#DejaVuSans-20" transform="translate(1049.169922 0)"/>
     </g>
    </g>
   </g>
   <g id="matplotlib.axis_2">
    <g id="ytick_1">
     <g id="line2d_4">
      <defs>
       <path id="md008df28d4" d="M 0 0 
L -3.5 0 
" style="stroke: #000000; stroke-width: 0.8"/>
      </defs>
      <g>
       <use xlink:href="#md008df28d4" x="90.92" y="365.205679" style="stroke: #000000; stroke-width: 0.8"/>
      </g>
     </g>
     <g id="text_5">
      <!-- 0.9 -->
      <g transform="translate(52.11375 372.804116) scale(0.2 -0.2)">
       <defs>
        <path id="DejaVuSans-39" d="M 703 97 
L 703 672 
Q 941 559 1184 500 
Q 1428 441 1663 441 
Q 2288 441 2617 861 
Q 2947 1281 2994 2138 
Q 2813 1869 2534 1725 
Q 2256 1581 1919 1581 
Q 1219 1581 811 2004 
Q 403 2428 403 3163 
Q 403 3881 828 4315 
Q 1253 4750 1959 4750 
Q 2769 4750 3195 4129 
Q 3622 3509 3622 2328 
Q 3622 1225 3098 567 
Q 2575 -91 1691 -91 
Q 1453 -91 1209 -44 
Q 966 3 703 97 
z
M 1959 2075 
Q 2384 2075 2632 2365 
Q 2881 2656 2881 3163 
Q 2881 3666 2632 3958 
Q 2384 4250 1959 4250 
Q 1534 4250 1286 3958 
Q 1038 3666 1038 3163 
Q 1038 2656 1286 2365 
Q 1534 2075 1959 2075 
z
" transform="scale(0.015625)"/>
       </defs>
       <use xlink:href="#DejaVuSans-30"/>
       <use xlink:href="#DejaVuSans-2e" transform="translate(63.623047 0)"/>
       <use xlink:href="#DejaVuSans-39" transform="translate(95.410156 0)"/>
      </g>
     </g>
    </g>
    <g id="ytick_2">
     <g id="line2d_5">
      <g>
       <use xlink:href="#md008df28d4" x="90.92" y="188.002839" style="stroke: #000000; stroke-width: 0.8"/>
      </g>
     </g>
     <g id="text_6">
      <!-- 0.95 -->
      <g transform="translate(39.38875 195.601277) scale(0.2 -0.2)">
       <use xlink:href="#DejaVuSans-30"/>
       <use xlink:href="#DejaVuSans-2e" transform="translate(63.623047 0)"/>
       <use xlink:href="#DejaVuSans-39" transform="translate(95.410156 0)"/>
       <use xlink:href="#DejaVuSans-35" transform="translate(159.033203 0)"/>
      </g>
     </g>
    </g>
    <g id="ytick_3">
     <g id="line2d_6">
      <g>
       <use xlink:href="#md008df28d4" x="90.92" y="10.8" style="stroke: #000000; stroke-width: 0.8"/>
      </g>
     </g>
     <g id="text_7">
      <!-- 1 -->
      <g transform="translate(71.195 18.398437) scale(0.2 -0.2)">
       <use xlink:href="#DejaVuSans-31"/>
      </g>
     </g>
    </g>
    <g id="text_8">
     <!-- stability -->
     <g transform="translate(30.189531 237.904609) rotate(-90) scale(0.25 -0.25)">
      <defs>
       <path id="DejaVuSans-61" d="M 2194 1759 
Q 1497 1759 1228 1600 
Q 959 1441 959 1056 
Q 959 750 1161 570 
Q 1363 391 1709 391 
Q 2188 391 2477 730 
Q 2766 1069 2766 1631 
L 2766 1759 
L 2194 1759 
z
M 3341 1997 
L 3341 0 
L 2766 0 
L 2766 531 
Q 2569 213 2275 61 
Q 1981 -91 1556 -91 
Q 1019 -91 701 211 
Q 384 513 384 1019 
Q 384 1609 779 1909 
Q 1175 2209 1959 2209 
L 2766 2209 
L 2766 2266 
Q 2766 2663 2505 2880 
Q 2244 3097 1772 3097 
Q 1472 3097 1187 3025 
Q 903 2953 641 2809 
L 641 3341 
Q 956 3463 1253 3523 
Q 1550 3584 1831 3584 
Q 2591 3584 2966 3190 
Q 3341 2797 3341 1997 
z
" transform="scale(0.015625)"/>
       <path id="DejaVuSans-62" d="M 3116 1747 
Q 3116 2381 2855 2742 
Q 2594 3103 2138 3103 
Q 1681 3103 1420 2742 
Q 1159 2381 1159 1747 
Q 1159 1113 1420 752 
Q 1681 391 2138 391 
Q 2594 391 2855 752 
Q 3116 1113 3116 1747 
z
M 1159 2969 
Q 1341 3281 1617 3432 
Q 1894 3584 2278 3584 
Q 2916 3584 3314 3078 
Q 3713 2572 3713 1747 
Q 3713 922 3314 415 
Q 2916 -91 2278 -91 
Q 1894 -91 1617 61 
Q 1341 213 1159 525 
L 1159 0 
L 581 0 
L 581 4863 
L 1159 4863 
L 1159 2969 
z
" transform="scale(0.015625)"/>
       <path id="DejaVuSans-6c" d="M 603 4863 
L 1178 4863 
L 1178 0 
L 603 0 
L 603 4863 
z
" transform="scale(0.015625)"/>
      </defs>
      <use xlink:href="#DejaVuSans-73"/>
      <use xlink:href="#DejaVuSans-74" transform="translate(52.099609 0)"/>
      <use xlink:href="#DejaVuSans-61" transform="translate(91.308594 0)"/>
      <use xlink:href="#DejaVuSans-62" transform="translate(152.587891 0)"/>
      <use xlink:href="#DejaVuSans-69" transform="translate(216.064453 0)"/>
      <use xlink:href="#DejaVuSans-6c" transform="translate(243.847656 0)"/>
      <use xlink:href="#DejaVuSans-69" transform="translate(271.630859 0)"/>
      <use xlink:href="#DejaVuSans-74" transform="translate(299.414062 0)"/>
      <use xlink:href="#DejaVuSans-79" transform="translate(338.623047 0)"/>
     </g>
    </g>
   </g>
   <g id="line2d_7">
    <path d="M 109.205455 10.8 
L 135.327532 42.1175 
L 161.44961 124.398237 
L 187.571689 236.778451 
L 213.693765 370.311192 
L 214.207987 433 
" clip-path="url(#p26f7557c81)" style="fill: none; stroke: #0b0724; stroke-width: 2; stroke-linecap: square"/>
   </g>
   <g id="line2d_8">
    <path d="M 109.205455 10.8 
L 135.327532 20.934978 
L 161.44961 51.179157 
L 187.571689 94.915164 
L 213.693765 151.392877 
L 239.815848 217.421273 
L 265.937924 297.907295 
L 292.06 380.147051 
L 292.494884 433 
" clip-path="url(#p26f7557c81)" style="fill: none; stroke: #210c4a; stroke-width: 2; stroke-linecap: square"/>
   </g>
   <g id="line2d_9">
    <path d="M 109.205455 10.8 
L 135.327532 16.460023 
L 161.44961 33.006413 
L 187.571689 59.426686 
L 213.693765 96.59644 
L 239.815848 137.094949 
L 265.937924 190.371498 
L 292.06 247.233884 
L 318.182076 305.599469 
L 344.304166 371.692082 
L 344.807278 433 
" clip-path="url(#p26f7557c81)" style="fill: none; stroke: #3d0965; stroke-width: 2; stroke-linecap: square"/>
   </g>
   <g id="line2d_10">
    <path d="M 109.205455 10.8 
L 135.327532 15.202076 
L 161.44961 27.878087 
L 187.571689 46.803064 
L 213.693765 75.314634 
L 239.815848 112.321521 
L 265.937924 152.886571 
L 292.06 202.94231 
L 318.182076 258.008714 
L 344.304166 310.350728 
L 370.426242 373.587558 
L 370.91409 433 
" clip-path="url(#p26f7557c81)" style="fill: none; stroke: #57106e; stroke-width: 2; stroke-linecap: square"/>
   </g>
   <g id="line2d_11">
    <path d="M 109.205455 10.8 
L 135.327532 14.356896 
L 161.44961 25.108279 
L 187.571689 41.535951 
L 213.693765 65.891542 
L 239.815848 94.834469 
L 265.937924 131.08194 
L 292.06 172.342399 
L 318.182076 219.119871 
L 344.304166 270.774503 
L 370.426242 320.836157 
L 396.548318 385.806863 
L 396.937325 433 
" clip-path="url(#p26f7557c81)" style="fill: none; stroke: #71196e; stroke-width: 2; stroke-linecap: square"/>
   </g>
   <g id="line2d_12">
    <path d="M 109.205455 10.8 
L 135.327532 13.908851 
L 161.44961 23.534313 
L 187.571689 38.72474 
L 213.693765 60.757512 
L 239.815848 86.767552 
L 265.937924 118.814472 
L 292.06 161.015593 
L 318.182076 203.413169 
L 344.304166 252.718576 
L 370.426242 302.273038 
L 396.548318 363.839364 
L 422.670394 415.829026 
L 422.813285 433 
" clip-path="url(#p26f7557c81)" style="fill: none; stroke: #8a226a; stroke-width: 2; stroke-linecap: square"/>
   </g>
   <g id="line2d_13">
    <path d="M 109.205455 10.8 
L 135.327532 13.609099 
L 161.44961 21.941336 
L 187.571689 35.886701 
L 213.693765 54.311034 
L 239.815848 79.773323 
L 265.937924 109.690499 
L 292.06 144.008695 
L 318.182076 186.365079 
L 344.304166 234.473799 
L 370.426242 284.235067 
L 396.548318 338.359964 
L 422.670394 393.624936 
L 422.99576 433 
" clip-path="url(#p26f7557c81)" style="fill: none; stroke: #a32c61; stroke-width: 2; stroke-linecap: square"/>
   </g>
   <g id="line2d_14">
    <path d="M 109.205455 10.8 
L 135.327532 13.399969 
L 161.44961 21.294301 
L 187.571689 34.355617 
L 213.693765 52.453792 
L 239.815848 75.057341 
L 265.937924 103.120022 
L 292.06 139.175685 
L 318.182076 179.677785 
L 344.304166 219.130644 
L 370.426242 269.938195 
L 396.548318 322.831339 
L 422.670394 381.758829 
L 423.092229 433 
" clip-path="url(#p26f7557c81)" style="fill: none; stroke: #bc3754; stroke-width: 2; stroke-linecap: square"/>
   </g>
   <g id="line2d_15">
    <path d="M 109.205455 10.8 
L 135.327532 13.229074 
L 161.44961 20.492214 
L 187.571689 32.083285 
L 213.693765 49.103491 
L 239.815848 70.066744 
L 265.937924 99.140852 
L 292.06 129.325461 
L 318.182076 165.63039 
L 344.304166 206.17854 
L 370.426242 254.793397 
L 396.548318 301.59157 
L 422.670394 360.695024 
L 448.792469 417.023178 
L 448.925475 433 
" clip-path="url(#p26f7557c81)" style="fill: none; stroke: #d24644; stroke-width: 2; stroke-linecap: square"/>
   </g>
   <g id="line2d_16">
    <path d="M 109.205455 10.8 
L 135.327532 13.009171 
L 161.44961 19.630135 
L 187.571689 30.780977 
L 213.693765 45.937604 
L 239.815848 67.935944 
L 265.937924 90.308394 
L 292.06 123.044386 
L 318.182076 156.534935 
L 344.304166 197.360446 
L 370.426242 239.126619 
L 396.548318 289.185527 
L 422.670394 345.580645 
L 448.792469 400.458199 
L 449.061953 433 
" clip-path="url(#p26f7557c81)" style="fill: none; stroke: #e45a31; stroke-width: 2; stroke-linecap: square"/>
   </g>
   <g id="line2d_17">
    <path d="M 109.205455 10.8 
L 135.327532 12.982766 
L 161.44961 19.717378 
L 187.571689 29.762156 
L 213.693765 45.185793 
L 239.815848 65.745574 
L 265.937924 89.970406 
L 292.06 119.165134 
L 318.182076 150.041772 
L 344.304166 194.473188 
L 370.426242 237.52477 
L 396.548318 285.720522 
L 422.670394 339.111353 
L 448.792469 394.757195 
L 449.108593 433 
" clip-path="url(#p26f7557c81)" style="fill: none; stroke: #f1731d; stroke-width: 2; stroke-linecap: square"/>
   </g>
   <g id="line2d_18">
    <path d="M 109.205455 10.8 
L 135.327532 12.825601 
L 161.44961 18.761296 
L 187.571689 28.70172 
L 213.693765 43.116676 
L 239.815848 62.118757 
L 265.937924 85.164224 
L 292.06 113.577567 
L 318.182076 146.256101 
L 344.304166 184.54227 
L 370.426242 224.703214 
L 396.548318 272.929596 
L 422.670394 326.763402 
L 448.792469 371.746371 
L 449.295145 433 
" clip-path="url(#p26f7557c81)" style="fill: none; stroke: #f98e09; stroke-width: 2; stroke-linecap: square"/>
   </g>
   <g id="line2d_19">
    <path d="M 109.205455 10.8 
L 135.327532 12.795605 
L 161.44961 18.907898 
L 187.571689 28.99598 
L 213.693765 43.545286 
L 239.815848 62.271485 
L 265.937924 85.680289 
L 292.06 115.083512 
L 318.182076 145.531329 
L 344.304166 185.915555 
L 370.426242 229.20901 
L 396.548318 271.530961 
L 422.670394 326.435131 
L 448.792469 382.353264 
L 449.20949 433 
" clip-path="url(#p26f7557c81)" style="fill: none; stroke: #fcac11; stroke-width: 2; stroke-linecap: square"/>
   </g>
   <g id="line2d_20">
    <path d="M 109.205455 10.8 
L 135.327532 12.756948 
L 161.44961 18.577093 
L 187.571689 27.833937 
L 213.693765 41.364211 
L 239.815848 60.740824 
L 265.937924 82.023686 
L 292.06 108.79103 
L 318.182076 141.163474 
L 344.304166 177.761184 
L 370.426242 219.267529 
L 396.548318 264.301197 
L 422.670394 316.226852 
L 448.792469 364.002655 
L 474.914545 432.732838 
" clip-path="url(#p26f7557c81)" style="fill: none; stroke: #f9cb35; stroke-width: 2; stroke-linecap: square"/>
   </g>
   <g id="line2d_21">
    <path d="M 109.205455 10.8 
L 135.327532 12.657875 
L 161.44961 18.303534 
L 187.571689 27.697897 
L 213.693765 41.977236 
L 239.815848 58.88823 
L 265.937924 80.303752 
L 292.06 108.31489 
L 318.182076 138.961063 
L 344.304166 178.341678 
L 370.426242 219.137193 
L 396.548318 263.75408 
L 422.670394 313.37973 
L 448.792469 368.32298 
L 449.322669 433 
" clip-path="url(#p26f7557c81)" style="fill: none; stroke: #f2ea69; stroke-width: 2; stroke-linecap: square"/>
   </g>
   <g id="patch_3">
    <path d="M 90.92 365.56 
L 90.92 10.8 
" style="fill: none; stroke: #000000; stroke-width: 0.8; stroke-linejoin: miter; stroke-linecap: square"/>
   </g>
   <g id="patch_4">
    <path d="M 90.92 365.56 
L 493.2 365.56 
" style="fill: none; stroke: #000000; stroke-width: 0.8; stroke-linejoin: miter; stroke-linecap: square"/>
   </g>
  </g>
 </g>
 <defs>
  <clipPath id="p26f7557c81">
   <rect x="90.92" y="10.8" width="402.28" height="354.76"/>
  </clipPath>
 </defs>
</svg>
